<?xml version="1.0" encoding="UTF-8" standalone="no"?>
<svg
   xmlns:ooo="http://xml.openoffice.org/svg/export"
   xmlns:dc="http://purl.org/dc/elements/1.1/"
   xmlns:cc="http://creativecommons.org/ns#"
   xmlns:rdf="http://www.w3.org/1999/02/22-rdf-syntax-ns#"
   xmlns:svg="http://www.w3.org/2000/svg"
   xmlns="http://www.w3.org/2000/svg"
   xmlns:sodipodi="http://sodipodi.sourceforge.net/DTD/sodipodi-0.dtd"
   xmlns:inkscape="http://www.inkscape.org/namespaces/inkscape"
   version="1.2"
   width="900"
   height="300"
   viewBox="0 0 25400.001 8466.6668"
   preserveAspectRatio="xMidYMid"
   clip-path="url(#presentation_clip_path)"
   xml:space="preserve"
   id="svg2"
   inkscape:version="0.48.4 r9939"
   sodipodi:docname="capybara-sync-issues.svg"
   style="fill-rule:evenodd;stroke-width:28.22200012;stroke-linejoin:round"><metadata
     id="metadata196"><rdf:RDF><cc:Work
         rdf:about=""><dc:format>image/svg+xml</dc:format><dc:type
           rdf:resource="http://purl.org/dc/dcmitype/StillImage" /></cc:Work></rdf:RDF></metadata><sodipodi:namedview
     pagecolor="#ffffff"
     bordercolor="#666666"
     borderopacity="1"
     objecttolerance="10"
     gridtolerance="10"
     guidetolerance="10"
     inkscape:pageopacity="0"
     inkscape:pageshadow="2"
     inkscape:window-width="1680"
     inkscape:window-height="997"
     id="namedview194"
     showgrid="false"
     fit-margin-top="0"
     fit-margin-left="0"
     fit-margin-right="0"
     fit-margin-bottom="0"
     inkscape:zoom="0.30027685"
     inkscape:cx="475.44397"
     inkscape:cy="145.35039"
     inkscape:window-x="0"
     inkscape:window-y="0"
     inkscape:window-maximized="1"
     inkscape:current-layer="svg2" /><defs
     class="ClipPathGroup"
     id="defs4"><clipPath
       id="presentation_clip_path"
       clipPathUnits="userSpaceOnUse"><rect
         x="0"
         y="0"
         width="29700"
         height="21000"
         id="rect7" /></clipPath></defs><defs
     class="TextShapeIndex"
     id="defs9"><g
       ooo:slide="id1"
       ooo:id-list="id3 id4 id5 id6 id7 id8 id9 id10 id11 id12"
       id="g11" /></defs><defs
     class="EmbeddedBulletChars"
     id="defs13"><g
       id="bullet-char-template(57356)"
       transform="scale(4.8828125e-4,-4.8828125e-4)"><path
         d="M 580,1141 1163,571 580,0 -4,571 580,1141 z"
         id="path16"
         inkscape:connector-curvature="0" /></g><g
       id="bullet-char-template(57354)"
       transform="scale(4.8828125e-4,-4.8828125e-4)"><path
         d="m 8,1128 1129,0 L 1137,0 8,0 8,1128 z"
         id="path19"
         inkscape:connector-curvature="0" /></g><g
       id="bullet-char-template(10146)"
       transform="scale(4.8828125e-4,-4.8828125e-4)"><path
         d="M 174,0 602,739 174,1481 1456,739 174,0 z m 1184,739 -1049,607 350,-607 699,0 z"
         id="path22"
         inkscape:connector-curvature="0" /></g><g
       id="bullet-char-template(10132)"
       transform="scale(4.8828125e-4,-4.8828125e-4)"><path
         d="M 2015,739 1276,0 717,0 l 543,543 -1086,0 0,393 1086,0 -543,545 557,0 741,-742 z"
         id="path25"
         inkscape:connector-curvature="0" /></g><g
       id="bullet-char-template(10007)"
       transform="scale(4.8828125e-4,-4.8828125e-4)"><path
         d="m 0,-2 c -7,16 -16,29 -25,39 l 381,530 c -94,256 -141,385 -141,387 0,25 13,38 40,38 9,0 21,-2 34,-5 21,4 42,12 65,25 l 27,-13 111,-251 280,301 64,-25 24,25 c 21,-10 41,-24 62,-43 C 886,937 835,863 770,784 769,783 710,716 594,584 L 774,223 c 0,-27 -21,-55 -63,-84 l 16,-20 C 717,90 699,76 672,76 641,76 570,178 457,381 L 164,-76 c -22,-34 -53,-51 -92,-51 -42,0 -63,17 -64,51 -7,9 -10,24 -10,44 0,9 1,19 2,30 z"
         id="path28"
         inkscape:connector-curvature="0" /></g><g
       id="bullet-char-template(10004)"
       transform="scale(4.8828125e-4,-4.8828125e-4)"><path
         d="M 285,-33 C 182,-33 111,30 74,156 52,228 41,333 41,471 c 0,78 14,145 41,201 34,71 87,106 158,106 53,0 88,-31 106,-94 l 23,-176 c 8,-64 28,-97 59,-98 l 735,706 c 11,11 33,17 66,17 42,0 63,-15 63,-46 l 0,-122 c 0,-36 -10,-64 -30,-84 L 442,47 C 390,-6 338,-33 285,-33 z"
         id="path31"
         inkscape:connector-curvature="0" /></g><g
       id="bullet-char-template(9679)"
       transform="scale(4.8828125e-4,-4.8828125e-4)"><path
         d="M 813,0 C 632,0 489,54 383,161 276,268 223,411 223,592 c 0,181 53,324 160,431 106,107 249,161 430,161 179,0 323,-54 432,-161 108,-107 162,-251 162,-431 0,-180 -54,-324 -162,-431 C 1136,54 992,0 813,0 z"
         id="path34"
         inkscape:connector-curvature="0" /></g><g
       id="bullet-char-template(8226)"
       transform="scale(4.8828125e-4,-4.8828125e-4)"><path
         d="m 346,457 c -73,0 -137,26 -191,78 -54,51 -81,114 -81,188 0,73 27,136 81,188 54,52 118,78 191,78 73,0 134,-26 185,-79 51,-51 77,-114 77,-187 0,-75 -25,-137 -76,-188 -50,-52 -112,-78 -186,-78 z"
         id="path37"
         inkscape:connector-curvature="0" /></g><g
       id="bullet-char-template(8211)"
       transform="scale(4.8828125e-4,-4.8828125e-4)"><path
         d="m -4,459 1139,0 0,147 -1139,0 0,-147 z"
         id="path40"
         inkscape:connector-curvature="0" /></g></defs><defs
     class="TextEmbeddedBitmaps"
     id="defs42" /><g
     id="g44"
     transform="translate(-1619.889,-6135.4446)"><g
       id="id2"
       class="Master_Slide"><g
         id="bg-id2"
         class="Background" /><g
         id="bo-id2"
         class="BackgroundObjects" /></g></g><g
     class="SlideGroup"
     id="g49"
     transform="translate(-651.65347,-6608.1666)"><g
       id="g51"><g
         id="id1"
         class="Slide"
         clip-path="url(#presentation_clip_path)"><g
           class="Page"
           id="g54"><g
             class="com.sun.star.drawing.CustomShape"
             id="g56"><g
               id="id3"><path
                 d="m 4238,8111 -2604,0 0,-889 5207,0 0,889 -2603,0 z"
                 id="path59"
                 inkscape:connector-curvature="0"
                 style="fill:#ffffff;stroke:none" /><path
                 d="m 4238,8111 -2604,0 0,-889 5207,0 0,889 -2603,0 z"
                 id="path61"
                 inkscape:connector-curvature="0"
                 style="fill:none;stroke:#cccccc" /><text
                 class="TextShape"
                 id="text63"><tspan
                   class="TextParagraph"
                   font-size="494px"
                   font-weight="400"
                   id="tspan65"
                   style="font-size:494px;font-weight:400;font-family:'Open Sans, sans-serif'"><tspan
                     class="TextPosition"
                     x="2172"
                     y="7859"
                     id="tspan67"><tspan
                       id="tspan69"
                       style="fill:#999999;stroke:none">it “shows the title”</tspan></tspan></tspan></text>
</g></g><g
             class="com.sun.star.drawing.CustomShape"
             id="g71"><g
               id="id4"><path
                 d="m 13827,14588 -3429,0 0,-7493 6858,0 0,7493 -3429,0 z"
                 id="path74"
                 inkscape:connector-curvature="0"
                 style="fill:#ffffff;stroke:none" /><path
                 d="m 13827,14588 -3429,0 0,-7493 6858,0 0,7493 -3429,0 z"
                 id="path76"
                 inkscape:connector-curvature="0"
                 style="fill:none;stroke:#cccccc" /><text
                 class="TextShape"
                 id="text78"><tspan
                   class="TextParagraph"
                   font-size="635px"
                   font-weight="400"
                   id="tspan80"
                   style="font-size:635px;font-weight:400;font-family:'Open Sans, sans-serif'"><tspan
                     class="TextPosition"
                     x="12593"
                     y="7902"
                     id="tspan82"><tspan
                       id="tspan84"
                       style="fill:#999999;stroke:none">Browser</tspan></tspan></tspan></text>
</g></g><g
             class="com.sun.star.drawing.LineShape"
             id="g86"><g
               id="id5"><path
                 d="m 15753,8620 1983,0"
                 id="path89"
                 inkscape:connector-curvature="0"
                 style="fill:none;stroke:#808080" /><path
                 d="m 18166,8620 -450,-150 0,300 450,-150 z"
                 id="path91"
                 inkscape:connector-curvature="0"
                 style="fill:#808080;stroke:none" /></g></g><g
             class="com.sun.star.drawing.TextShape"
             id="g93"><g
               id="id6"><text
                 class="TextShape"
                 id="text96"><tspan
                   class="TextParagraph"
                   font-size="494px"
                   font-weight="400"
                   id="tspan98"
                   style="font-size:494px;font-weight:400;font-family:'Open Sans, sans-serif'"><tspan
                     class="TextPosition"
                     x="18541"
                     y="8770"
                     id="tspan100"><tspan
                       id="tspan102"
                       style="fill:#808080;stroke:none">GET /blog_post/1</tspan></tspan></tspan></text>
</g></g><g
             class="com.sun.star.drawing.LineShape"
             id="g104"><g
               id="id7"><path
                 d="m 15782,10706 1983,0"
                 id="path107"
                 inkscape:connector-curvature="0"
                 style="fill:none;stroke:#808080" /><path
                 d="m 18195,10706 -450,-150 0,300 450,-150 z"
                 id="path109"
                 inkscape:connector-curvature="0"
                 style="fill:#808080;stroke:none" /></g></g><g
             class="com.sun.star.drawing.TextShape"
             id="g111"><g
               id="id8"><text
                 class="TextShape"
                 id="text114"><tspan
                   class="TextParagraph"
                   font-size="494px"
                   font-weight="400"
                   id="tspan116"
                   style="font-size:494px;font-weight:400;font-family:'Open Sans, sans-serif'"><tspan
                     class="TextPosition"
                     x="18570"
                     y="10856"
                     id="tspan118"><tspan
                       id="tspan120"
                       style="fill:#ff3333;stroke:none">GET /blog_post/1/comments</tspan></tspan></tspan></text>
</g></g><g
             class="com.sun.star.drawing.LineShape"
             id="g122"><g
               id="id9"><path
                 d="m 7223,7604 2368,323"
                 id="path125"
                 inkscape:connector-curvature="0"
                 style="fill:none;stroke:#808080" /><path
                 d="m 10017,7985 -426,-209 -40,297 466,-88 z"
                 id="path127"
                 inkscape:connector-curvature="0"
                 style="fill:#808080;stroke:none" /></g></g><g
             class="com.sun.star.drawing.LineShape"
             id="g129"><g
               id="id10"><path
                 d="M 15732,9636 7773,8189"
                 id="path132"
                 inkscape:connector-curvature="0"
                 style="fill:none;stroke:#808080" /><path
                 d="m 7350,8112 416,228 54,-295 -470,67 z"
                 id="path134"
                 inkscape:connector-curvature="0"
                 style="fill:#808080;stroke:none" /></g></g><g
             class="com.sun.star.drawing.CustomShape"
             id="g136"><g
               id="id11"><path
                 d="m 4492,11921 -2858,0 0,-889 5715,0 0,889 -2857,0 z"
                 id="path139"
                 inkscape:connector-curvature="0"
                 style="fill:#ffffff;stroke:none" /><path
                 d="m 4492,11921 -2858,0 0,-889 5715,0 0,889 -2857,0 z"
                 id="path141"
                 inkscape:connector-curvature="0"
                 style="fill:none;stroke:#cccccc" /><text
                 class="TextShape"
                 id="text143"><tspan
                   class="TextParagraph"
                   font-size="494px"
                   font-weight="400"
                   id="tspan145"
                   style="font-size:494px;font-weight:400;font-family:'Open Sans, sans-serif'"><tspan
                     class="TextPosition"
                     x="1979"
                     y="11669"
                     id="tspan147"><tspan
                       id="tspan149"
                       style="fill:#999999;stroke:none">it “shows the content”</tspan></tspan></tspan></text>
</g></g><g
             class="com.sun.star.drawing.LineShape"
             id="g151"><g
               id="id12"><path
                 d="m 3794,8493 0,51"
                 id="path154"
                 inkscape:connector-curvature="0"
                 style="fill:none;stroke:#808080" /><path
                 d="m 3794,8595 0,51"
                 id="path156"
                 inkscape:connector-curvature="0"
                 style="fill:none;stroke:#808080" /><path
                 d="m 3794,8697 0,51"
                 id="path158"
                 inkscape:connector-curvature="0"
                 style="fill:none;stroke:#808080" /><path
                 d="m 3794,8799 0,51"
                 id="path160"
                 inkscape:connector-curvature="0"
                 style="fill:none;stroke:#808080" /><path
                 d="m 3794,8901 0,51"
                 id="path162"
                 inkscape:connector-curvature="0"
                 style="fill:none;stroke:#808080" /><path
                 d="m 3794,9003 0,51"
                 id="path164"
                 inkscape:connector-curvature="0"
                 style="fill:none;stroke:#808080" /><path
                 d="m 3794,9105 0,51"
                 id="path166"
                 inkscape:connector-curvature="0"
                 style="fill:none;stroke:#808080" /><path
                 d="m 3794,9207 0,51"
                 id="path168"
                 inkscape:connector-curvature="0"
                 style="fill:none;stroke:#808080" /><path
                 d="m 3794,9309 0,51"
                 id="path170"
                 inkscape:connector-curvature="0"
                 style="fill:none;stroke:#808080" /><path
                 d="m 3794,9411 0,51"
                 id="path172"
                 inkscape:connector-curvature="0"
                 style="fill:none;stroke:#808080" /><path
                 d="m 3794,9513 0,51"
                 id="path174"
                 inkscape:connector-curvature="0"
                 style="fill:none;stroke:#808080" /><path
                 d="m 3794,9615 0,51"
                 id="path176"
                 inkscape:connector-curvature="0"
                 style="fill:none;stroke:#808080" /><path
                 d="m 3794,9717 0,51"
                 id="path178"
                 inkscape:connector-curvature="0"
                 style="fill:none;stroke:#808080" /><path
                 d="m 3794,9819 0,51"
                 id="path180"
                 inkscape:connector-curvature="0"
                 style="fill:none;stroke:#808080" /><path
                 d="m 3794,9921 0,51"
                 id="path182"
                 inkscape:connector-curvature="0"
                 style="fill:none;stroke:#808080" /><path
                 d="m 3794,10023 0,51"
                 id="path184"
                 inkscape:connector-curvature="0"
                 style="fill:none;stroke:#808080" /><path
                 d="m 3794,10125 0,51"
                 id="path186"
                 inkscape:connector-curvature="0"
                 style="fill:none;stroke:#808080" /><path
                 d="m 3794,10227 0,51"
                 id="path188"
                 inkscape:connector-curvature="0"
                 style="fill:none;stroke:#808080" /><path
                 d="m 3794,10329 0,20"
                 id="path190"
                 inkscape:connector-curvature="0"
                 style="fill:none;stroke:#808080" /><path
                 d="m 3794,10779 150,-450 -300,0 150,450 z"
                 id="path192"
                 inkscape:connector-curvature="0"
                 style="fill:#808080;stroke:none" /></g></g></g></g></g></g></svg>