<?xml version="1.0" encoding="UTF-8" standalone="no"?>
<!-- Created with Inkscape (http://www.inkscape.org/) -->

<svg
   xmlns:dc="http://purl.org/dc/elements/1.1/"
   xmlns:cc="http://creativecommons.org/ns#"
   xmlns:rdf="http://www.w3.org/1999/02/22-rdf-syntax-ns#"
   xmlns:svg="http://www.w3.org/2000/svg"
   xmlns="http://www.w3.org/2000/svg"
   xmlns:xlink="http://www.w3.org/1999/xlink"
   xmlns:sodipodi="http://sodipodi.sourceforge.net/DTD/sodipodi-0.dtd"
   xmlns:inkscape="http://www.inkscape.org/namespaces/inkscape"
   width="5385"
   height="2440.9087"
   id="svg3509"
   version="1.1"
   inkscape:version="0.48.4 r9939"
   sodipodi:docname="hstry.svg">
  <defs
     id="defs3511">
    <linearGradient
       x1="0"
       y1="0"
       x2="1"
       y2="0"
       gradientUnits="userSpaceOnUse"
       gradientTransform="matrix(0,-138.00049,-138.00049,0,571.91602,567)"
       spreadMethod="pad"
       id="linearGradient118">
      <stop
         style="stop-opacity:1;stop-color:#01aef0"
         offset="0"
         id="stop120" />
      <stop
         style="stop-opacity:1;stop-color:#3cbef0"
         offset="1"
         id="stop122" />
    </linearGradient>
    <linearGradient
       y2="0"
       x2="1"
       y1="0"
       x1="0"
       spreadMethod="pad"
       gradientTransform="matrix(0,2440.917,-1593.5115,0,375.47134,-688.09219)"
       gradientUnits="userSpaceOnUse"
       id="linearGradient3507"
       xlink:href="#linearGradient118"
       inkscape:collect="always" />
  </defs>
  <sodipodi:namedview
     id="base"
     pagecolor="#ffffff"
     bordercolor="#666666"
     borderopacity="1.0"
     inkscape:pageopacity="0.0"
     inkscape:pageshadow="2"
     inkscape:zoom="0.061871844"
     inkscape:cx="2675.1211"
     inkscape:cy="1221.1723"
     inkscape:document-units="px"
     inkscape:current-layer="layer1"
     showgrid="false"
     fit-margin-top="0"
     fit-margin-left="0"
     fit-margin-right="0"
     fit-margin-bottom="0"
     inkscape:window-width="1680"
     inkscape:window-height="997"
     inkscape:window-x="0"
     inkscape:window-y="0"
     inkscape:window-maximized="1" />
  <metadata
     id="metadata3514">
    <rdf:RDF>
      <cc:Work
         rdf:about="">
        <dc:format>image/svg+xml</dc:format>
        <dc:type
           rdf:resource="http://purl.org/dc/dcmitype/StillImage" />
        <dc:title />
      </cc:Work>
    </rdf:RDF>
  </metadata>
  <g
     inkscape:label="Layer 1"
     inkscape:groupmode="layer"
     id="layer1"
     transform="translate(2364.2655,688.09219)">
    <path
       inkscape:connector-curvature="0"
       d="m -2140.8366,-688.09219 0,258.75911 -223.4289,283.5537 219.0262,280.14273 4.4006,1618.45325 5161.5732,0 0,-2440.90879 z"
       style="fill:url(#linearGradient3507);stroke:none"
       id="path124"
       inkscape:export-xdpi="43.339531"
       inkscape:export-ydpi="43.339531"
       sodipodi:nodetypes="cccccccc" />
    <path
       inkscape:connector-curvature="0"
       d="m -950.85365,-287.79544 0,1640.29084 c 0,22.7993 -11.79788,34.1544 -35.33856,34.1544 l -224.65289,0 c -23.5769,0 -35.3392,-11.3551 -35.3392,-34.1544 l 0,-698.10041 -166.5959,0 0,698.10041 c 0,22.7993 -11.7797,34.1544 -35.3385,34.1544 l -224.6529,0 c -23.5769,0 -35.3392,-11.3551 -35.3392,-34.1544 l 0,-1640.29084 c 0,-22.76377 11.7623,-34.17251 35.3392,-34.17251 l 224.6529,0 c 23.5588,0 35.3385,11.40874 35.3385,34.17251 l 0,656.60451 166.5959,0 0,-656.60451 c 0,-22.76377 11.7623,-34.17251 35.3392,-34.17251 l 224.65289,0 c 23.54068,0 35.33856,11.40874 35.33856,34.17251"
       style="fill:#ffffff;fill-opacity:1;fill-rule:nonzero;stroke:none"
       id="path136" />
    <path
       inkscape:connector-curvature="0"
       d="m -223.88376,-314.64527 c 38.68607,16.28983 72.3425,38.25787 100.9679,65.90482 28.58914,27.69856 51.306884,60.22591 68.152535,97.63644 16.810085,37.444 25.241628,77.312157 25.241628,119.604471 l 0,92.753949 c 0,22.816774 -10.974257,37.462832 -32.813279,43.93678 l -229.702014,58.58144 c -21.89412,6.52765 -32.81398,-1.59704 -32.81398,-24.40893 l 0,-158.658772 c 0,-16.255653 -5.92091,-30.087847 -17.66928,-41.495886 -11.79858,-11.373168 -26.11965,-17.086253 -42.9116,-17.086253 l -20.19386,0 c -16.84635,0 -31.16812,5.71169 -42.91091,17.086253 -11.79788,11.408039 -17.66928,25.240233 -17.66928,41.495886 l 0,222.122692 c 1.64586,17.93429 5.04219,33.37608 10.09693,46.37698 5.04219,13.03507 14.26668,26.0534 27.76551,39.05429 l 330.669229,239.19152 c 26.906317,22.81677 44.173197,46.02339 51.746243,69.58359 7.574441,23.6125 13.00508,50.03901 16.406291,79.3116 l 0,419.8539 c 0,42.3439 -8.431543,82.1772 -25.241628,119.587 -16.845651,37.4796 -39.563395,69.9902 -68.152535,97.6546 -28.6254,27.6804 -62.28183,49.6666 -100.9679,65.886 -38.74117,16.2549 -79.95112,24.4271 -123.68565,24.4271 l -95.91874,0 c -43.7715,0 -84.99888,-8.1722 -123.68495,-24.4271 -38.74117,-16.2194 -72.37877,-38.2056 -100.96791,-65.886 -28.64423,-27.6644 -51.36197,-60.175 -68.15253,-97.6546 -16.84705,-37.4098 -25.24233,-77.2431 -25.24233,-119.587 l 0,-234.32717 c 0,-22.76447 10.91986,-37.42727 32.81468,-43.93608 l 229.70062,-58.56471 c 21.83972,-6.49277 32.81467,1.62494 32.81467,24.3922 l 0,300.23196 c 0,16.2724 5.8721,30.1213 17.66928,41.4952 11.74279,11.3906 26.06456,17.103 42.91091,17.103 l 20.19386,0 c 16.79195,0 31.11302,-5.7117 42.9116,-17.103 11.74279,-11.3739 17.66928,-25.2228 17.66928,-41.4952 l 0,-322.21813 c -1.70165,-21.10188 -5.04219,-39.83329 -10.09763,-56.12312 -5.04219,-16.23752 -15.14469,-30.88357 -30.28939,-43.93608 L -690.85875,420.06783 c -25.24093,-22.76447 -43.34957,-45.54637 -54.27013,-68.34501 -10.97425,-22.76517 -16.40699,-52.85162 -16.40699,-90.31376 l 0,-292.908599 c 0,-42.292314 8.39528,-82.160471 25.24233,-119.604471 16.79056,-37.41053 39.5083,-69.93788 68.15253,-97.63644 28.58914,-27.64695 62.22674,-49.61499 100.96791,-65.90482 38.68607,-16.23752 79.91345,-24.40893 123.68495,-24.40893 l 95.91874,0 c 43.73453,0 84.94448,8.17141 123.68565,24.40893"
       style="fill:#ffffff;fill-opacity:1;fill-rule:nonzero;stroke:none"
       id="path140" />
    <path
       inkscape:connector-curvature="0"
       d="m 793.34183,-287.79544 0,217.240909 c 0,22.800036 -11.79719,34.173205 -35.33856,34.173205 l -179.21667,0 0,1388.876726 c 0,22.7993 -11.79789,34.1544 -35.33856,34.1544 l -224.65355,0 c -8.43224,0 -16.40699,-3.222 -23.97934,-9.728 -7.57514,-6.4928 -11.35922,-14.6454 -11.35922,-24.4264 l 0,-1388.876726 -176.69348,0 c -23.577638,0 -35.33856,-11.373169 -35.33856,-34.173205 l 0,-217.240909 c 0,-22.76377 11.760922,-34.17251 35.33856,-34.17251 l 651.24082,0 c 23.54137,0 35.33856,11.40874 35.33856,34.17251"
       style="fill:#ffffff;fill-opacity:1;fill-rule:nonzero;stroke:none"
       id="path144" />
    <path
       inkscape:connector-curvature="0"
       d="m 1265.3576,429.82792 80.7748,0 c 16.8093,0 31.1137,-5.67682 42.929,-17.08695 11.7435,-11.35434 17.6511,-25.20467 17.6511,-41.49519 l 0,-373.4587829 c 0,-16.2368231 -5.9069,-30.0864521 -17.6511,-41.4951881 -11.8153,-11.373168 -26.1197,-17.086951 -42.929,-17.086951 l -80.7748,0 0,490.623062 z m 487.1689,922.66328 c 5.0421,22.7993 -3.4033,34.1725 -25.2417,34.1725 l -229.7013,0 c -10.0969,0 -19.7908,-3.2359 -29.0459,-9.7454 -9.2378,-6.4928 -15.5666,-14.6454 -18.9142,-24.4271 l -184.2658,-598.02237 0,632.19487 -2.5246,-24.3908 c -3.3824,16.2724 -14.321,24.3908 -32.8321,24.3908 l -224.6347,0 c -23.57764,0 -35.33856,-11.3732 -35.33856,-34.1725 l 0,-1640.29013 c 0,-22.76447 11.76092,-34.1732 35.33856,-34.1732 l 378.6105,0 c 43.7701,0 84.9619,8.17211 123.703,24.40893 38.6861,16.29053 72.3237,38.25926 100.9854,65.90482 28.571,27.68183 51.2894,60.22661 68.1351,97.63644 16.8094,37.462828 25.2416,77.312854 25.2416,119.60447 l 0,397.86841 c 0,60.22661 -16.0046,114.35098 -47.9594,162.32011 -31.9917,48.02214 -74.079,85.04282 -126.1907,111.06135 l 224.6341,695.6588 z"
       style="fill:#ffffff;fill-opacity:1;fill-rule:nonzero;stroke:none"
       id="path148" />
    <path
       inkscape:connector-curvature="0"
       d="m 2671.2997,-310.98393 c 5.07,7.32268 5.893,15.06938 2.5385,23.18849 l -290.2815,1010.53615 0,629.75469 c 0,22.7986 -11.7986,34.1725 -35.3393,34.1725 l -227.1948,0 c -23.5777,0 -35.3386,-11.3739 -35.3386,-34.1725 l 0,-629.75469 -290.2634,-1010.53615 c -3.3824,-8.11981 -2.5246,-15.86581 2.5037,-23.18849 5.0701,-7.32268 12.6403,-10.98402 22.7184,-10.98402 l 267.5819,0 c 23.5414,0 36.9851,11.40804 40.3689,34.17251 l 100.986,615.10932 10.0788,0 100.9854,-615.10932 c 3.3266,-22.76447 16.8094,-34.17251 40.387,-34.17251 l 267.5645,0 c 10.0962,0 17.6685,3.66134 22.6989,10.98402"
       style="fill:#ffffff;fill-opacity:1;fill-rule:nonzero;stroke:none"
       id="path152" />
  </g>
</svg>
