<?xml version="1.0" encoding="UTF-8" standalone="no"?>
<!-- Created with Inkscape (http://www.inkscape.org/) -->

<svg
   xmlns:dc="http://purl.org/dc/elements/1.1/"
   xmlns:cc="http://creativecommons.org/ns#"
   xmlns:rdf="http://www.w3.org/1999/02/22-rdf-syntax-ns#"
   xmlns:svg="http://www.w3.org/2000/svg"
   xmlns="http://www.w3.org/2000/svg"
   xmlns:xlink="http://www.w3.org/1999/xlink"
   xmlns:sodipodi="http://sodipodi.sourceforge.net/DTD/sodipodi-0.dtd"
   xmlns:inkscape="http://www.inkscape.org/namespaces/inkscape"
   width="199.99854"
   height="58.251999"
   id="svg3509"
   version="1.1"
   inkscape:version="0.48.4 r9939"
   sodipodi:docname="hstry.svg">
  <defs
     id="defs3511">
    <linearGradient
       x1="0"
       y1="0"
       x2="1"
       y2="0"
       gradientUnits="userSpaceOnUse"
       gradientTransform="matrix(0,-138.00049,-138.00049,0,571.91602,567)"
       spreadMethod="pad"
       id="linearGradient118">
      <stop
         style="stop-opacity:1;stop-color:#01aef0"
         offset="0"
         id="stop120" />
      <stop
         style="stop-opacity:1;stop-color:#3cbef0"
         offset="1"
         id="stop122" />
    </linearGradient>
    <linearGradient
       y2="0"
       x2="1"
       y1="0"
       x1="0"
       spreadMethod="pad"
       gradientTransform="matrix(0,58.252206,-60.239683,0,375.00002,503.23618)"
       gradientUnits="userSpaceOnUse"
       id="linearGradient3507"
       xlink:href="#linearGradient118"
       inkscape:collect="always" />
  </defs>
  <sodipodi:namedview
     id="base"
     pagecolor="#ffffff"
     bordercolor="#666666"
     borderopacity="1.0"
     inkscape:pageopacity="0.0"
     inkscape:pageshadow="2"
     inkscape:zoom="3.959798"
     inkscape:cx="103.10895"
     inkscape:cy="22.193408"
     inkscape:document-units="px"
     inkscape:current-layer="layer1"
     showgrid="false"
     fit-margin-top="0"
     fit-margin-left="0"
     fit-margin-right="0"
     fit-margin-bottom="0"
     inkscape:window-width="1680"
     inkscape:window-height="994"
     inkscape:window-x="0"
     inkscape:window-y="0"
     inkscape:window-maximized="1" />
  <metadata
     id="metadata3514">
    <rdf:RDF>
      <cc:Work
         rdf:about="">
        <dc:format>image/svg+xml</dc:format>
        <dc:type
           rdf:resource="http://purl.org/dc/dcmitype/StillImage" />
        <dc:title />
      </cc:Work>
    </rdf:RDF>
  </metadata>
  <g
     inkscape:label="Layer 1"
     inkscape:groupmode="layer"
     id="layer1"
     transform="translate(-275.00073,-503.23618)">
    <path
       inkscape:connector-curvature="0"
       d="m 279.87577,503.23618 0,4.51115 -4.87504,4.35329 4.87504,4.3537 0,45.03386 195.1235,0 0,-58.252 -195.1235,0 z"
       style="fill:url(#linearGradient3507);stroke:none"
       id="path124" />
    <path
       inkscape:connector-curvature="0"
       d="m 306.47712,512.78922 0,39.14534 c 0,0.54411 -0.28155,0.8151 -0.84335,0.8151 l -5.36132,0 c -0.56266,0 -0.84335,-0.27099 -0.84335,-0.8151 l 0,-16.66007 -3.9758,0 0,16.66007 c 0,0.54411 -0.28112,0.8151 -0.84335,0.8151 l -5.36132,0 c -0.56266,0 -0.84335,-0.27099 -0.84335,-0.8151 l 0,-39.14534 c 0,-0.54326 0.28069,-0.81553 0.84335,-0.81553 l 5.36132,0 c 0.56223,0 0.84335,0.27227 0.84335,0.81553 l 0,15.66978 3.9758,0 0,-15.66978 c 0,-0.54326 0.28069,-0.81553 0.84335,-0.81553 l 5.36132,0 c 0.5618,0 0.84335,0.27227 0.84335,0.81553"
       style="fill:#ffffff;fill-opacity:1;fill-rule:nonzero;stroke:none"
       id="path136" />
    <path
       inkscape:connector-curvature="0"
       d="m 323.82618,512.14844 c 0.92324,0.38876 1.72644,0.91303 2.40958,1.57281 0.68228,0.66102 1.22443,1.43729 1.62647,2.33008 0.40116,0.8936 0.60238,1.84505 0.60238,2.85435 l 0,2.21357 c 0,0.54452 -0.2619,0.89404 -0.7831,1.04854 l -5.4818,1.39805 c -0.5225,0.15572 -0.7831,-0.0381 -0.7831,-0.58252 l 0,-3.78638 c 0,-0.38794 -0.14136,-0.71804 -0.42169,-0.99029 -0.28155,-0.27143 -0.62333,-0.40776 -1.02407,-0.40776 l -0.48192,0 c -0.40203,0 -0.74382,0.13631 -1.02407,0.40776 -0.28155,0.27225 -0.42167,0.60235 -0.42167,0.99029 l 0,5.30093 c 0.0392,0.42802 0.12039,0.79652 0.24095,1.10679 0.12039,0.31108 0.34049,0.62176 0.66264,0.93203 l 7.89138,5.70827 c 0.64211,0.54452 1.05419,1.09834 1.2349,1.66061 0.18078,0.56351 0.31037,1.19416 0.39155,1.89276 l 0,10.01977 c 0,1.01054 -0.20122,1.96115 -0.60238,2.85392 -0.40204,0.89446 -0.94419,1.67032 -1.62647,2.33051 -0.68314,0.6606 -1.48634,1.18529 -2.40958,1.57238 -0.92456,0.38792 -1.90802,0.58294 -2.95174,0.58294 l -2.28909,0 c -1.0446,0 -2.02849,-0.19502 -2.95173,-0.58294 -0.92456,-0.38709 -1.72731,-0.91178 -2.40959,-1.57238 -0.68359,-0.66019 -1.22574,-1.43605 -1.62646,-2.33051 -0.40203,-0.89277 -0.6024,-1.84338 -0.6024,-2.85392 l 0,-5.59219 c 0,-0.54328 0.2606,-0.8932 0.78312,-1.04854 l 5.48178,-1.39764 c 0.5212,-0.15495 0.78312,0.0388 0.78312,0.58211 l 0,7.165 c 0,0.38835 0.1402,0.71885 0.42167,0.99028 0.28025,0.27185 0.62204,0.40818 1.02407,0.40818 l 0.48192,0 c 0.40074,0 0.74252,-0.13631 1.02407,-0.40818 0.28025,-0.27143 0.42169,-0.60193 0.42169,-0.99028 l 0,-7.68969 c -0.0406,-0.50359 -0.12039,-0.95061 -0.24097,-1.33937 -0.12039,-0.38751 -0.36144,-0.73702 -0.72287,-1.04854 l -7.7709,-5.76694 c -0.60238,-0.54328 -1.03453,-1.08697 -1.29515,-1.63106 -0.2619,-0.54328 -0.39155,-1.26129 -0.39155,-2.15532 l 0,-6.99024 c 0,-1.0093 0.20037,-1.96075 0.6024,-2.85435 0.40072,-0.89279 0.94287,-1.66906 1.62646,-2.33008 0.68228,-0.65978 1.48503,-1.18405 2.40959,-1.57281 0.92324,-0.38751 1.90713,-0.58252 2.95173,-0.58252 l 2.28909,0 c 1.04372,0 2.02718,0.19501 2.95174,0.58252"
       style="fill:#ffffff;fill-opacity:1;fill-rule:nonzero;stroke:none"
       id="path140" />
    <path
       inkscape:connector-curvature="0"
       d="m 348.10216,512.78922 0,5.18442 c 0,0.54412 -0.28155,0.81553 -0.84335,0.81553 l -4.277,0 0,33.14539 c 0,0.54411 -0.28155,0.8151 -0.84336,0.8151 l -5.36132,0 c -0.20124,0 -0.39155,-0.0769 -0.57226,-0.23215 -0.18078,-0.15495 -0.27109,-0.34951 -0.27109,-0.58295 l 0,-33.14539 -4.21676,0 c -0.56268,0 -0.84336,-0.27141 -0.84336,-0.81553 l 0,-5.18442 c 0,-0.54326 0.28068,-0.81553 0.84336,-0.81553 l 15.54179,0 c 0.5618,0 0.84335,0.27227 0.84335,0.81553"
       style="fill:#ffffff;fill-opacity:1;fill-rule:nonzero;stroke:none"
       id="path144" />
    <path
       inkscape:connector-curvature="0"
       d="m 359.36676,529.91521 1.92767,0 c 0.40116,0 0.74252,-0.13554 1.0245,-0.40777 0.28025,-0.27098 0.42124,-0.60151 0.42124,-0.99028 l 0,-8.91256 c 0,-0.38749 -0.14097,-0.71801 -0.42124,-0.99028 -0.28198,-0.27142 -0.62334,-0.40776 -1.0245,-0.40776 l -1.92767,0 0,11.70865 z m 11.62622,22.01925 c 0.12039,0.54412 -0.0812,0.81553 -0.60238,0.81553 l -5.48181,0 c -0.24095,0 -0.4723,-0.0773 -0.69318,-0.23258 -0.22044,-0.15495 -0.37149,-0.34951 -0.45137,-0.58295 l -4.39748,-14.27174 0,15.08727 -0.0602,-0.58209 c -0.0808,0.38835 -0.34178,0.58209 -0.78355,0.58209 l -5.36087,0 c -0.56267,0 -0.84335,-0.27141 -0.84335,-0.81553 l 0,-39.14534 c 0,-0.54326 0.28068,-0.81553 0.84335,-0.81553 l 9.03549,0 c 1.04457,0 2.02761,0.19503 2.95217,0.58252 0.92324,0.38878 1.72599,0.91304 2.41,1.57281 0.68184,0.66061 1.22401,1.43731 1.62603,2.33008 0.40116,0.89405 0.6024,1.84507 0.6024,2.85434 l 0,9.49508 c 0,1.43731 -0.38196,2.72899 -1.14455,3.87376 -0.76347,1.14605 -1.76789,2.02954 -3.01153,2.65046 l 5.36087,16.60182 z"
       style="fill:#ffffff;fill-opacity:1;fill-rule:nonzero;stroke:none"
       id="path148" />
    <path
       inkscape:connector-curvature="0"
       d="m 392.9194,512.23582 c 0.12097,0.17476 0.14058,0.35963 0.0606,0.5534 l -6.92754,24.11632 0,15.02902 c 0,0.54409 -0.28155,0.81553 -0.84335,0.81553 l -5.42198,0 c -0.56267,0 -0.84335,-0.27144 -0.84335,-0.81553 l 0,-15.02902 -6.92712,-24.11632 c -0.0808,-0.19379 -0.0602,-0.37864 0.0598,-0.5534 0.12097,-0.17475 0.30165,-0.26213 0.54217,-0.26213 l 6.38582,0 c 0.5618,0 0.88263,0.27225 0.96339,0.81553 l 2.41002,14.6795 0.24052,0 2.41,-14.6795 c 0.0794,-0.54328 0.40117,-0.81553 0.96384,-0.81553 l 6.38539,0 c 0.24095,0 0.42167,0.0874 0.54171,0.26213"
       style="fill:#ffffff;fill-opacity:1;fill-rule:nonzero;stroke:none"
       id="path152" />
    <path
       inkscape:connector-curvature="0"
       d="m 393.03963,549.42984 c 0,-1.0097 0.38152,-1.88305 1.14499,-2.62175 0.76215,-0.73702 1.66575,-1.10638 2.71033,-1.10638 1.04459,0 1.94775,0.36936 2.71122,1.10638 0.76215,0.7387 1.14411,1.61205 1.14411,2.62175 0,1.01013 -0.38196,1.88391 -1.14411,2.62134 -0.76347,0.73702 -1.66663,1.10679 -2.71122,1.10679 -1.04458,0 -1.94818,-0.36977 -2.71033,-1.10679 -0.76347,-0.73743 -1.14499,-1.61121 -1.14499,-2.62134"
       style="fill:#ffffff;fill-opacity:1;fill-rule:nonzero;stroke:none"
       id="path156" />
    <path
       inkscape:connector-curvature="0"
       d="m 414.48526,519.19701 c 0,-0.38792 -0.14135,-0.71844 -0.42211,-0.99028 -0.2811,-0.27142 -0.62291,-0.40776 -1.02407,-0.40776 l -0.48147,0 c -0.40204,0 -0.74339,0.13631 -1.02407,0.40776 -0.28113,0.27184 -0.42212,0.60236 -0.42212,0.99028 l 0,26.32991 c 0,0.38835 0.14097,0.71887 0.42212,0.99028 0.28068,0.27185 0.62203,0.40777 1.02407,0.40777 l 0.48147,0 c 0.40116,0 0.74297,-0.13592 1.02407,-0.40777 0.28068,-0.27141 0.42211,-0.60193 0.42211,-0.99028 l 0,-26.32991 z m 7.04803,26.62074 c 0,1.01098 -0.20124,1.96158 -0.6024,2.85435 -0.40159,0.89405 -0.94374,1.67032 -1.62646,2.33051 -0.68316,0.66061 -1.48636,1.18488 -2.40959,1.57237 -0.92454,0.38794 -1.90801,0.58295 -2.95173,0.58295 l -2.28909,0 c -1.04459,0 -2.02851,-0.19501 -2.95174,-0.58295 -0.92411,-0.38749 -1.72731,-0.91176 -2.40958,-1.57237 -0.68358,-0.66019 -1.22574,-1.43646 -1.62647,-2.33051 -0.40204,-0.89277 -0.60238,-1.84337 -0.60238,-2.85435 l 0,-26.912 c 0,-1.0097 0.20034,-1.96072 0.60238,-2.85434 0.40073,-0.89277 0.94289,-1.66947 1.62647,-2.33008 0.68227,-0.66019 1.48547,-1.18403 2.40958,-1.57281 0.92323,-0.38792 1.90715,-0.58252 2.95174,-0.58252 l 2.28909,0 c 1.04372,0 2.02719,0.1946 2.95173,0.58252 0.92323,0.38878 1.72643,0.91262 2.40959,1.57281 0.68272,0.66061 1.22487,1.43731 1.62646,2.33008 0.40116,0.89362 0.6024,1.84464 0.6024,2.85434 l 0,26.912 z"
       style="fill:#ffffff;fill-opacity:1;fill-rule:nonzero;stroke:none"
       id="path160" />
    <path
       inkscape:connector-curvature="0"
       d="m 433.39963,529.91521 1.92768,0 c 0.40071,0 0.74251,-0.13554 1.02407,-0.40777 0.28023,-0.27098 0.42211,-0.60151 0.42211,-0.99028 l 0,-8.91256 c 0,-0.38749 -0.14194,-0.71801 -0.42211,-0.99028 -0.28156,-0.27142 -0.62336,-0.40776 -1.02407,-0.40776 l -1.92768,0 0,11.70865 z m 11.62665,22.01925 c 0.12,0.54412 -0.0812,0.81553 -0.60283,0.81553 l -5.48223,0 c -0.24008,0 -0.47231,-0.0773 -0.69231,-0.23258 -0.22087,-0.15495 -0.37147,-0.34951 -0.4518,-0.58295 l -4.39748,-14.27174 0,15.08727 -0.0606,-0.58209 c -0.0804,0.38835 -0.34136,0.58209 -0.78268,0.58209 l -5.3613,0 c -0.56312,0 -0.84335,-0.27141 -0.84335,-0.81553 l 0,-39.14534 c 0,-0.54326 0.28023,-0.81553 0.84335,-0.81553 l 9.03592,0 c 1.04372,0 2.02761,0.19503 2.95172,0.58252 0.92324,0.38878 1.72644,0.91304 2.4096,1.57281 0.68271,0.66061 1.22442,1.43731 1.62645,2.33008 0.40074,0.89405 0.60241,1.84507 0.60241,2.85434 l 0,9.49508 c 0,1.43731 -0.38239,2.72899 -1.14456,3.87376 -0.76304,1.14605 -1.76746,2.02954 -3.01198,2.65046 l 5.36175,16.60182 z"
       style="fill:#ffffff;fill-opacity:1;fill-rule:nonzero;stroke:none"
       id="path164" />
    <path
       inkscape:connector-curvature="0"
       d="m 461.22979,512.14844 c 0.92324,0.38876 1.72599,0.91303 2.41001,1.57281 0.68184,0.66102 1.22401,1.43729 1.62602,2.33008 0.40117,0.8936 0.60241,1.84505 0.60241,2.85435 l 0,1.86406 c 0,0.54409 -0.2619,0.89403 -0.78312,1.04854 l -5.48179,1.92231 c -0.52252,0.15573 -0.78355,-0.0381 -0.78355,-0.58252 l 0,-3.96113 c 0,-0.38794 -0.14097,-0.71804 -0.42124,-0.99029 -0.28155,-0.27143 -0.6229,-0.40776 -1.02407,-0.40776 l -0.48234,0 c -0.40116,0 -0.74339,0.13631 -1.02365,0.40776 -0.28155,0.27225 -0.42166,0.60235 -0.42166,0.99029 l 0,26.3299 c 0,0.38835 0.14019,0.71885 0.42166,0.99028 0.28026,0.27185 0.62249,0.40818 1.02365,0.40818 l 0.48234,0 c 0.40117,0 0.74252,-0.13631 1.02407,-0.40818 0.28025,-0.27143 0.42124,-0.60193 0.42124,-0.99028 l 0,-10.36886 -1.68628,0 0,-6.64072 7.89138,0 c 0.56181,0 0.84336,0.27225 0.84336,0.81552 l 0,16.48532 c 0,1.01054 -0.20124,1.96115 -0.60241,2.85392 -0.40201,0.89446 -0.94418,1.67032 -1.62602,2.33051 -0.68402,0.6606 -1.48677,1.18529 -2.41001,1.57238 -0.92455,0.38792 -1.90759,0.58294 -2.95217,0.58294 l -2.28911,0 c -1.04414,0 -2.02806,-0.19502 -2.95172,-0.58294 -0.92411,-0.38709 -1.72686,-0.91178 -2.40915,-1.57238 -0.68359,-0.66019 -1.22574,-1.43605 -1.6269,-2.33051 -0.40159,-0.89277 -0.60196,-1.84338 -0.60196,-2.85392 l 0,-26.91242 c 0,-1.0093 0.20037,-1.96075 0.60196,-2.85435 0.40116,-0.89279 0.94331,-1.66906 1.6269,-2.33008 0.68229,-0.65978 1.48504,-1.18405 2.40915,-1.57281 0.92366,-0.38751 1.90758,-0.58252 2.95172,-0.58252 l 2.28911,0 c 1.04458,0 2.02762,0.19501 2.95217,0.58252"
       style="fill:#ffffff;fill-opacity:1;fill-rule:nonzero;stroke:none"
       id="path168" />
  </g>
</svg>
