<?xml version="1.0" encoding="UTF-8" standalone="no"?>
<svg id="svg2" xmlns:rdf="http://www.w3.org/1999/02/22-rdf-syntax-ns#" xmlns="http://www.w3.org/2000/svg" height="1e3" width="1500" version="1.1" xmlns:cc="http://creativecommons.org/ns#" xmlns:xlink="http://www.w3.org/1999/xlink" viewBox="-4 -4 24 16" xmlns:dc="http://purl.org/dc/elements/1.1/">
 <defs>
  <clipPath id="SVGID_2_">
   <use id="use49" xlink:href="#SVGID_1_" height="100%" width="100%" y="0" x="0" overflow="visible"/>
  </clipPath>
  <clipPath id="SVGID_4_">
   <use id="use65" xlink:href="#SVGID_3_" height="100%" width="100%" y="0" x="0" overflow="visible"/>
  </clipPath>
  <clipPath id="SVGID_6_">
   <use id="use81" xlink:href="#SVGID_5_" height="100%" width="100%" y="0" x="0" overflow="visible"/>
  </clipPath>
  <clipPath id="SVGID_8_">
   <use id="use113" xlink:href="#SVGID_7_" height="100%" width="100%" y="0" x="0" overflow="visible"/>
  </clipPath>
  <clipPath id="SVGID_10_">
   <use id="use133" xlink:href="#SVGID_9_" height="100%" width="100%" y="0" x="0" overflow="visible"/>
  </clipPath>
  <clipPath id="SVGID_12_">
   <use id="use149" xlink:href="#SVGID_11_" height="100%" width="100%" y="0" x="0" overflow="visible"/>
  </clipPath>
  <clipPath id="SVGID_14_">
   <use id="use165" xlink:href="#SVGID_13_" height="100%" width="100%" y="0" x="0" overflow="visible"/>
  </clipPath>
  <clipPath id="SVGID_16_">
   <use id="use181" xlink:href="#SVGID_15_" height="100%" width="100%" y="0" x="0" overflow="visible"/>
  </clipPath>
  <clipPath id="SVGID_18_">
   <use id="use197" xlink:href="#SVGID_17_" height="100%" width="100%" y="0" x="0" overflow="visible"/>
  </clipPath>
  <clipPath id="SVGID_20_">
   <use id="use229" xlink:href="#SVGID_19_" height="100%" width="100%" y="0" x="0" overflow="visible"/>
  </clipPath>
  <clipPath id="SVGID_22_">
   <use id="use245" xlink:href="#SVGID_21_" height="100%" width="100%" y="0" x="0" overflow="visible"/>
  </clipPath>
  <clipPath id="SVGID_24_">
   <use id="use261" xlink:href="#SVGID_23_" height="100%" width="100%" y="0" x="0" overflow="visible"/>
  </clipPath>
  <clipPath id="SVGID_26_">
   <use id="use287" xlink:href="#SVGID_25_" height="100%" width="100%" y="0" x="0" overflow="visible"/>
  </clipPath>
  <clipPath id="SVGID_28_">
   <use id="use303" xlink:href="#SVGID_27_" height="100%" width="100%" y="0" x="0" overflow="visible"/>
  </clipPath>
  <clipPath id="SVGID_30_">
   <use id="use321" xlink:href="#SVGID_29_" height="100%" width="100%" y="0" x="0" overflow="visible"/>
  </clipPath>
  <clipPath id="SVGID_32_">
   <use id="use337" xlink:href="#SVGID_31_" height="100%" width="100%" y="0" x="0" overflow="visible"/>
  </clipPath>
  <clipPath id="SVGID_34_">
   <use id="use353" xlink:href="#SVGID_33_" height="100%" width="100%" y="0" x="0" overflow="visible"/>
  </clipPath>
  <clipPath id="SVGID_36_">
   <use id="use369" xlink:href="#SVGID_35_" height="100%" width="100%" y="0" x="0" overflow="visible"/>
  </clipPath>
  <clipPath id="SVGID_38_">
   <use id="use387" xlink:href="#SVGID_37_" height="100%" width="100%" y="0" x="0" overflow="visible"/>
  </clipPath>
  <clipPath id="SVGID_40_">
   <use id="use407" xlink:href="#SVGID_39_" height="100%" width="100%" y="0" x="0" overflow="visible"/>
  </clipPath>
  <clipPath id="SVGID_42_">
   <use id="use425" xlink:href="#SVGID_41_" height="100%" width="100%" y="0" x="0" overflow="visible"/>
  </clipPath>
  <clipPath id="SVGID_44_">
   <use id="use441" xlink:href="#SVGID_43_" height="100%" width="100%" y="0" x="0" overflow="visible"/>
  </clipPath>
  <clipPath id="SVGID_46_">
   <use id="use457" xlink:href="#SVGID_45_" height="100%" width="100%" y="0" x="0" overflow="visible"/>
  </clipPath>
  <clipPath id="SVGID_48_">
   <use id="use473" xlink:href="#SVGID_47_" height="100%" width="100%" y="0" x="0" overflow="visible"/>
  </clipPath>
  <clipPath id="SVGID_50_">
   <use id="use489" xlink:href="#SVGID_49_" height="100%" width="100%" y="0" x="0" overflow="visible"/>
  </clipPath>
  <clipPath id="SVGID_52_">
   <use id="use507" xlink:href="#SVGID_51_" height="100%" width="100%" y="0" x="0" overflow="visible"/>
  </clipPath>
  <clipPath id="SVGID_54_">
   <use id="use523" xlink:href="#SVGID_53_" height="100%" width="100%" y="0" x="0" overflow="visible"/>
  </clipPath>
  <clipPath id="SVGID_56_">
   <use id="use541" xlink:href="#SVGID_55_" height="100%" width="100%" y="0" x="0" overflow="visible"/>
  </clipPath>
  <clipPath id="SVGID_58_">
   <use id="use563" xlink:href="#SVGID_57_" height="100%" width="100%" y="0" x="0" overflow="visible"/>
  </clipPath>
  <clipPath id="SVGID_60_">
   <use id="use579" xlink:href="#SVGID_59_" height="100%" width="100%" y="0" x="0" overflow="visible"/>
  </clipPath>
  <clipPath id="SVGID_62_">
   <use id="use595" xlink:href="#SVGID_61_" height="100%" width="100%" y="0" x="0" overflow="visible"/>
  </clipPath>
  <clipPath id="SVGID_64_">
   <use id="use611" xlink:href="#SVGID_63_" height="100%" width="100%" y="0" x="0" overflow="visible"/>
  </clipPath>
  <clipPath id="SVGID_66_">
   <use id="use627" xlink:href="#SVGID_65_" height="100%" width="100%" y="0" x="0" overflow="visible"/>
  </clipPath>
  <clipPath id="SVGID_68_">
   <use id="use643" xlink:href="#SVGID_67_" height="100%" width="100%" y="0" x="0" overflow="visible"/>
  </clipPath>
  <clipPath id="SVGID_70_">
   <use id="use659" xlink:href="#SVGID_69_" height="100%" width="100%" y="0" x="0" overflow="visible"/>
  </clipPath>
  <clipPath id="SVGID_72_">
   <use id="use675" xlink:href="#SVGID_71_" height="100%" width="100%" y="0" x="0" overflow="visible"/>
  </clipPath>
  <clipPath id="SVGID_74_">
   <use id="use691" xlink:href="#SVGID_73_" height="100%" width="100%" y="0" x="0" overflow="visible"/>
  </clipPath>
  <clipPath id="SVGID_76_">
   <use id="use707" xlink:href="#SVGID_75_" height="100%" width="100%" y="0" x="0" overflow="visible"/>
  </clipPath>
  <clipPath id="SVGID_78_">
   <use id="use723" xlink:href="#SVGID_77_" height="100%" width="100%" y="0" x="0" overflow="visible"/>
  </clipPath>
  <clipPath id="SVGID_80_">
   <use id="use739" xlink:href="#SVGID_79_" height="100%" width="100%" y="0" x="0" overflow="visible"/>
  </clipPath>
  <clipPath id="SVGID_82_">
   <use id="use755" xlink:href="#SVGID_81_" height="100%" width="100%" y="0" x="0" overflow="visible"/>
  </clipPath>
  <clipPath id="SVGID_84_">
   <use id="use771" xlink:href="#SVGID_83_" height="100%" width="100%" y="0" x="0" overflow="visible"/>
  </clipPath>
  <rect id="SVGID_1_" y="42.594" width="165.59" x="41.324" height="57.834"/>
  <rect id="SVGID_3_" y="38.394" width="32.629" x="43.766" height="15.826"/>
  <rect id="SVGID_5_" y="46.795" width="24.814" x="176.63" height="16.803"/>
  <rect id="SVGID_7_" y="161.29" width="22.958" x="188.84" height="26.67"/>
  <rect id="SVGID_9_" y="147.91" width="7.62" x="198.32" height="6.252"/>
  <rect id="SVGID_11_" y="146.34" width="7.521" x="210.72" height="7.034"/>
  <rect id="SVGID_13_" y="157.87" width="15.436" x="199.59" height="8.4"/>
  <rect id="SVGID_15_" y="155.82" width="5.568" x="217.66" height="4.885"/>
  <rect id="SVGID_17_" y="147.71" width="125.93" x="64.38" height="35.658"/>
  <rect id="SVGID_19_" y="13.091" width="17.585" x="176.14" height="43.571"/>
  <rect id="SVGID_21_" y="19.636" width="43.18" x="37.514" height="30.871"/>
  <rect id="SVGID_23_" y="10.551" width="25.596" x="176.73" height="43.18"/>
  <rect id="SVGID_25_" y="32.434" width="114.59" x="60.081" height="109.32"/>
  <rect id="SVGID_27_" y="85.775" width="12.798" x="115.57" height="5.373"/>
  <rect id="SVGID_29_" y="79.913" width="14.167" x="114.98" height="9.671"/>
  <rect id="SVGID_31_" y="91.344" width="110.3" x="72.195" height="62.621"/>
  <rect id="SVGID_33_" y="92.32" width="91.44" x="77.959" height="46.405"/>
  <rect id="SVGID_35_" y="93.297" width="89.486" x="78.936" height="45.428"/>
  <rect id="SVGID_37_" y="94.274" width="87.533" x="79.913" height="44.352"/>
  <rect id="SVGID_39_" y="115.28" width="49.042" x="100.53" height="20.222"/>
  <rect id="SVGID_41_" y="104.04" width="29.406" x="107.07" height="22.664"/>
  <rect id="SVGID_43_" y="103.65" width="29.015" x="107.17" height="10.062"/>
  <rect id="SVGID_45_" y="109.81" width="5.373" x="120.94" height="14.361"/>
  <rect id="SVGID_47_" y="19.636" width="38.491" x="38.002" height="34.877"/>
  <rect id="SVGID_49_" y="55.979" width="130.62" x="58.322" height="41.52"/>
  <rect id="SVGID_51_" y="43.669" width="153.67" x="47.772" height="51.875"/>
  <rect id="SVGID_53_" y="50.8" width="49.335" x="62.719" height="33.411"/>
  <rect id="SVGID_55_" y="55.392" width="48.944" x="136.38" height="34.192"/>
  <rect id="SVGID_57_" y="49.042" width="152.69" x="47.772" height="44.938"/>
  <rect id="SVGID_59_" y="44.744" width="19.733" x="50.214" height="2.931"/>
  <rect id="SVGID_61_" y="49.531" width="21.199" x="113.72" height="5.177"/>
  <rect id="SVGID_63_" y="53.34" width="12.017" x="182.88" height="3.81"/>
  <rect id="SVGID_65_" y="50.214" width="28.234" x="60.667" height="27.94"/>
  <rect id="SVGID_67_" y="55.099" width="27.159" x="161.1" height="29.796"/>
  <rect id="SVGID_69_" y="52.168" width="46.697" x="64.086" height="26.866"/>
  <rect id="SVGID_71_" y="69.948" width="34.389" x="65.063" height="13.58"/>
  <rect id="SVGID_73_" y="56.76" width="46.6" x="137.75" height="24.912"/>
  <rect id="SVGID_75_" y="77.178" width="35.463" x="146.54" height="11.43"/>
  <rect id="SVGID_77_" y="62.329" width="1.954" x="85.09" height="1.954"/>
  <rect id="SVGID_79_" y="66.92" width="1.954" x="162.27" height="1.954"/>
  <rect id="SVGID_81_" y="46.6" width="63.305" x="50.605" height="9.281"/>
  <rect id="SVGID_83_" y="49.726" width="46.795" x="134.33" height="8.988"/>
 </defs>
 <path id="path4" d="m20 12h-24v-16h24z" fill="#d52b1e"/>
 <path id="path6" d="m4 4h16v-8h-24z" fill="#fff"/>
 <path id="path8" fill="#0039a6" d="m4 4h-8v-8h8z"/>
 <g id="f">
  <g id="t">
   <path id="o" fill="#fff" d="m0-2v2h1z" transform="rotate(18,0,-2)"/>
   <use id="use13" xlink:href="#o" transform="scale(-1,1)"/>
  </g>
  <use id="use15" xlink:href="#t" transform="rotate(72)"/>
 </g>
 <use id="use17" xlink:href="#t" transform="rotate(-72)"/>
 <use id="use19" xlink:href="#f" transform="rotate(144)"/>
 <g id="g6241" transform="matrix(4 0 0 4 -126.16 -23.243)">
  <path id="path3" fill="#fff" d="m32.442 7.8336c0.0031-0.00781 0.0063-0.015632 0.0094-0.02344l0.0016-0.00312c0.0078-0.018752 0.01563-0.039072 0.02344-0.057824 0.0094-0.025008 0.01875-0.0516 0.02813-0.076592 0.0063-0.01408 0.01094-0.028144 0.01563-0.04376 0.01251-0.034384 0.0297-0.079728 0.05002-0.1235 0.0125-0.02656 0.02187-0.045312 0.03282-0.062512 0.01251-0.02032 0.02501-0.039072 0.03907-0.05784l0.01094-0.015632 0.0172-0.010944c0.0016-0.00157 0.0047-0.00312 0.0078-0.00469 0.0078-0.00469 0.0172-0.00782 0.02344-0.010944 0.01094-0.0047 0.02501-0.00939 0.04064-0.01408 0.02189-0.00626 0.0469-0.012496 0.07659-0.018752 0.04376-0.00938 0.09066-0.018768 0.15006-0.028144 0.08909-0.01408 0.18443-0.026576 0.29854-0.039072 0.20165-0.021888 0.40328-0.03752 0.5971-0.046896 0.10315-0.00469 0.18131-0.00626 0.25478-0.00626h0.0469c0.04845 0.00157 0.10474 0.00312 0.15632 0.010944 0.01875 0.00312 0.03594 0.00627 0.04845 0.01096 0.0047 0.00155 0.0094 0.00312 0.01094 0.00467l0.01563 0.00627 0.0125 0.010944c0.0047 0.00469 0.0094 0.00938 0.01408 0.014064 0.01718 0.0172 0.03595 0.03752 0.05472 0.060976 0.05939 0.075024 0.11253 0.16568 0.15944 0.26886 0.04531 0.10003 0.07346 0.18912 0.09066 0.27666l0.02344 0.12349h-0.28762l-0.01718-0.082848c-0.01877-0.087536-0.25478-0.31888-0.37202-0.36419-0.01251-0.0047-0.06253-0.018768-0.21728-0.018768-0.31886 0-0.76904 0.056272-0.83312 0.070336-0.07661 0.035936-0.19382 0.186-0.26104 0.33606l-0.02813 0.06096"/>
  <path id="path5" fill="#ba8449" d="m34.396 7.3771c-0.01408-0.018752-0.0297-0.035952-0.0469-0.051584-0.0031-0.00312-0.0078-0.00781-0.01096-0.010944 0 0-0.0016 0-0.0031-0.00157-0.0078-0.00312-0.01877-0.00469-0.0297-0.00627-0.04533-0.00624-0.09379-0.00781-0.14224-0.00936-0.09846-0.00157-0.19696 0.00155-0.29544 0.00626-0.19694 0.00938-0.39546 0.024992-0.59085 0.046896-0.09846 0.010944-0.19694 0.023456-0.29386 0.039072-0.04845 0.00781-0.09691 0.015648-0.14381 0.02656-0.02344 0.0047-0.0469 0.01096-0.06877 0.0172-0.01094 0.00312-0.02189 0.00626-0.03126 0.01096-0.0047 0.00155-0.0094 0.0031-0.01094 0.00624 0 0-0.0016 0-0.0016 0.00158-0.01094 0.015632-0.02189 0.031264-0.03283 0.048448s-0.01875 0.035936-0.02813 0.054704c-0.0172 0.03752-0.03282 0.076592-0.0469 0.11566-0.01408 0.039072-0.0297 0.079712-0.04378 0.12034-0.0078 0.020336-0.01563 0.040656-0.02501 0.060976-0.0031 0.00938-0.0078 0.018768-0.0125 0.028128h0.13286c0.0719-0.16099 0.20789-0.34542 0.32043-0.39077 0.03126-0.012496 0.53458-0.075024 0.8675-0.075024 0.1235 0 0.20789 0.00938 0.25478 0.026576 0.136 0.053136 0.40798 0.30482 0.43611 0.4408h0.07659c-0.01565-0.085968-0.04691-0.17037-0.08285-0.25166-0.04062-0.093792-0.08909-0.17976-0.1469-0.25322"/>
  <path id="path7" fill="#fff" d="m34.337 7.3115z"/>
  <path id="path9" fill="#ba8449" d="m34.337 7.3115z"/>
  <g fill="#fff">
   <path id="path11" d="m34.54 7.9789-0.01563-0.0844c-0.01406-0.070336-0.0375-0.14536-0.07502-0.22822-0.04062-0.087536-0.08438-0.16413-0.1344-0.22507-0.0094-0.012496-0.01877-0.02344-0.02814-0.032832-0.03907-0.00626-0.0844-0.00626-0.12504-0.00781h-0.04378c-0.07034 0-0.14536 0.00157-0.24539 0.00626-0.1907 0.00938-0.38608 0.024992-0.58461 0.046896-0.11098 0.012496-0.2032 0.025008-0.28762 0.037536-0.0547 0.00781-0.09848 0.017184-0.13755 0.024992-0.02499 0.00626-0.04376 0.010944-0.06096 0.015632-0.0031 0-0.0047 0.00157-0.0063 0.00157-0.0031 0.00626-0.0078 0.010944-0.01094 0.0172-0.0078 0.012496-0.01406 0.026576-0.02499 0.045312-0.0172 0.035968-0.03126 0.073472-0.04378 0.10632-0.0063 0.014064-0.01094 0.028128-0.01563 0.042192-0.0094 0.026576-0.01875 0.053152-0.0297 0.079728-0.0078 0.02032-0.0172 0.040624-0.02501 0.062512l-0.0016 0.00312c-0.0031 0.00938-0.0078 0.018752-0.01094 0.02656l-0.02814 0.062528h-0.18288l-0.02658-0.012496-0.0031-0.00157c-0.06253-0.035952-0.06253-0.089088-0.06098-0.11099v-0.00469l0.0031-0.014064 0.0047-0.0172c0.0031-0.010944 0.0063-0.023456 0.0094-0.034384 0.0063-0.023456 0.01406-0.045328 0.02189-0.0672 0.01408-0.04064 0.03126-0.0844 0.05158-0.1313 0.02189-0.048464 0.04221-0.090672 0.06565-0.12974 0.01094-0.02032 0.02344-0.04064 0.03907-0.06408 0.01406-0.021888 0.0297-0.04376 0.04533-0.06408 0.01406-0.0172 0.02658-0.02816 0.03595-0.034384h0.0016c0.0094-0.00782 0.01875-0.012496 0.02346-0.01408 0.01406-0.00781 0.02501-0.012496 0.03282-0.015632 0.01875-0.00782 0.03595-0.012512 0.05002-0.017184 0.03126-0.00939 0.06096-0.015648 0.08285-0.020336 0.04533-0.00939 0.09378-0.018752 0.15474-0.028144 0.09066-0.014064 0.186-0.024992 0.30325-0.03752 0.2032-0.02032 0.4064-0.035936 0.60334-0.043744 0.09378-0.00314 0.16725-0.00627 0.23446-0.00627h0.0719c0.05002 0.00157 0.10629 0.00312 0.16725 0.012496h0.0016c0.01408 0.00312 0.03595 0.00627 0.06098 0.01408h0.0016c0.0063 0.00312 0.01565 0.00624 0.02658 0.010944 0.0078 0.00469 0.01406 0.00782 0.01877 0.010944l0.0078 0.00626 0.0063 0.00469 0.0063 0.00627c0.0063 0.00624 0.01096 0.010944 0.01718 0.017184 0.02032 0.02032 0.03907 0.042208 0.05939 0.068784 0.06253 0.08128 0.11723 0.17506 0.16726 0.28605 0.02344 0.051584 0.04376 0.10315 0.05939 0.15317 0.0172 0.054704 0.0297 0.1063 0.03907 0.15632l0.01875 0.12035h-0.28448v0.00154z"/>
   <path id="path13" d="m32.542 7.9789 0.06878-0.1485c0.05782-0.12347 0.19694-0.35013 0.3517-0.41422l0.0031-0.00157c0.05158-0.018752 0.57366-0.079696 0.89253-0.079696 0.17821 0 0.24541 0.017184 0.27979 0.031264 0.16099 0.062512 0.44078 0.32667 0.47832 0.48299l0.03125 0.12818h-2.1055v0.00155z"/>
   <path id="path15" d="m34.435 7.9789-0.01877-0.079712c-0.0172-0.073472-0.2376-0.29386-0.35168-0.33918-0.01096-0.00469-0.05629-0.017184-0.20634-0.017184-0.30635 0-0.75029 0.054704-0.82218 0.068768-0.05939 0.029696-0.16725 0.15632-0.23758 0.30637l-0.02814 0.059392h-0.25949l0.06566-0.14536c0.07659-0.17194 0.22821-0.38453 0.3767-0.44392 0.05782-0.023456 0.58616-0.082848 0.90659-0.082848 0.13912 0 0.23291 0.010944 0.29075 0.032816 0.16099 0.062528 0.46266 0.33451 0.50019 0.51582l0.02499 0.12504h-0.24072z"/>
   <path id="path17" d="m34.556 7.9789-0.02968-0.028144c-0.11254-0.10474-0.14381-0.32198-0.10942-0.41109 0.02346-0.059392 0.07347-0.079696 0.11098-0.079696 0.01096 0 0.02034 0.00157 0.0297 0.00469 0.02034-0.00158 0.06722-0.040656 0.0813-0.062528 0.02187-0.04064 0.06408-0.065648 0.11566-0.065648 0.07659 0 0.20165 0.06096 0.24229 0.11878 0.02344 0.032832 0.0297 0.071904 0.0172 0.1063-0.0016 0.00312-0.0031 0.00938-0.0063 0.017184-0.04221 0.12661-0.09691 0.28136-0.14067 0.35326l-0.0297 0.048448-0.28138-0.00157z"/>
   <path id="path19" d="m34.546 7.9789 0.09691-0.15787c0.04691-0.076592 0.07971-0.1391 0.10162-0.18757-0.0547 0.039072-0.13131 0.062512-0.24541 0.068784l-0.0031-0.00314-0.0016 0.01096c-0.06722 0-0.12192-0.054704-0.12504-0.12194-0.0016-0.032816 0.01094-0.065648 0.03282-0.090656 0.02189-0.024992 0.05315-0.039072 0.08597-0.040624 0.11254-0.00469 0.12662-0.031264 0.14694-0.070336 0.02814-0.053152 0.0891-0.084416 0.16882-0.084416 0.02032 0 0.04064 0.00158 0.05939 0.00627 0.09848 0.021872 0.16258 0.096928 0.16726 0.19381 0.0047 0.09848-0.05003 0.24229-0.15944 0.42674l-0.02968 0.050016h-0.29547v-0.000032z"/>
   <path id="path21" d="m34.957 7.671c-0.12661 0-0.26416-0.082864-0.3345-0.16413-0.0641-0.073472-0.07034-0.13912-0.0641-0.18133 0.0078-0.051584 0.05002-0.10315 0.12662-0.10315 0.01405 0 0.02813 0.00157 0.04062 0.00312 0.0125-0.056288 0.04222-0.17352 0.16258-0.17352h0.01718c0.05782 0.00627 0.1016 0.042224 0.11878 0.096928 0.01877-0.00938 0.04066-0.017184 0.06566-0.017184 0.03752 0 0.07347 0.015632 0.10005 0.04376 0.04221 0.045312 0.05158 0.10784 0.02499 0.16725 0.02813 0.017184 0.05002 0.04376 0.05939 0.07816 0.01251 0.04376 0.0047 0.090656-0.02344 0.12816-0.05472 0.076608-0.18131 0.11254-0.28136 0.11566-0.0062 0.00627-0.0094 0.00627-0.0125 0.00627"/>
   <path id="path23" d="m34.832 5.0966c-0.11411 0.071904-0.23915 0.23602-0.39234 0.4611-0.02346 0.035952-0.06253 0.054704-0.1063 0.054704-0.05629 0-0.12818-0.034384-0.21101-0.1016-0.1313-0.1063-0.13443-0.16568-0.13598-0.18914-0.0031-0.062528 0.04374-0.11566 0.10941-0.12194 0.12661-0.010944 0.23134-0.08752 0.33294-0.16099 0.10162-0.073472 0.19539-0.14067 0.30794-0.14067 0.02187 0 0.04531 0.00314 0.0672 0.00782"/>
  </g>
  <path id="path25" fill="#fff8ef" d="m34.106 5.3045c0.30637-0.028128 0.48613-0.34544 0.67213-0.29699-0.12504 0.07816-0.24851 0.23446-0.42203 0.49082-0.04221 0.06096-0.33448-0.18602-0.2501-0.19382"/>
  <g fill="#fff">
   <path id="path27" d="m32.12 5.1591c0.07661-0.070336 0.17976-0.1063 0.30637-0.1063 0.10941 0 0.23915 0.026576 0.38453 0.079712 0.03907 0.014064 0.09066 0.0172 0.12973 0.0172h0.03126 0.02658c0.03595 0 0.11254 0 0.14536 0.070336 0.01094 0.026576 0.02501 0.08128-0.01718 0.14536-0.05158 0.079712-0.18757 0.16411-0.31888 0.16411h-0.0063c-0.07034-0.00157-0.13598-0.039072-0.21258-0.08128-0.09534-0.053152-0.2032-0.11411-0.33138-0.11411-0.0172 0-0.03595 0.00157-0.05314 0.00314"/>
   <path id="path29" d="m34.478 5.9172c-0.05627 0-0.16254-0.02344-0.22976-0.18288-0.03752-0.0844-0.05002-0.17976-0.05002-0.2329 0-0.10942 0.05782-0.13912 0.09378-0.14693 0.02499-0.025008 0.07189-0.089104 0.10629-0.13757 0.14222-0.19382 0.24539-0.32043 0.36578-0.32043 0.02032 0 0.03907 0.00312 0.05781 0.010944 0.16101 0.06408 0.23917 0.20006 0.21259 0.372-0.01877 0.12662-0.09846 0.27667-0.2157 0.41422-0.0547 0.064096-0.19696 0.21414-0.32357 0.22354h-0.0172"/>
   <path id="path31" d="m32.63 5.9766c-0.01406 0-0.02813 0-0.04064-0.00312-0.20006-0.032816-0.45018-0.23446-0.54395-0.44235-0.06408-0.14224-0.03595-0.23915 0-0.29542 0.05784-0.092224 0.14381-0.14067 0.2501-0.14067 0.12818 0 0.25634 0.070336 0.3689 0.1313 0.04376 0.02344 0.10629 0.05784 0.13286 0.06408 0.0094-0.00312 0.01875-0.00469 0.0297-0.00469 0.04064 0 0.07816 0.021888 0.10003 0.059408 0.05158 0.090656 0.02034 0.3345-0.06096 0.47518-0.05627 0.10315-0.14069 0.15629-0.23603 0.15629z"/>
   <path id="path33" d="m33.327 7.721c-0.46893 0-0.93317-0.22974-1.0879-0.39701-0.16099-0.1735-0.21883-0.37045-0.17506-0.58614 0.03752-0.17664 0.13598-0.33451 0.22195-0.47518 0.05941-0.096912 0.11566-0.18757 0.13131-0.25322 0.19069-0.84253 0.66901-0.95038 1.0644-0.95038 0.02501 0 0.05158 0 0.08128 0.00157 0.84251 0.025008 0.92693 0.43141 0.97693 0.67526 0.0094 0.045328 0.01877 0.087536 0.02971 0.11566 0.28291 0.69402 0.32979 1.1098 0.1563 1.3912-0.17037 0.27667-0.54395 0.41267-1.288 0.47363-0.03595 0.0031-0.07346 0.00466-0.11098 0.00466z"/>
   <path id="path35" d="m33.31 7.7226c-0.4783 0-0.92066-0.2376-1.0692-0.39859-0.16099-0.1735-0.21883-0.37045-0.17506-0.58614 0.03752-0.17664 0.136-0.33451 0.22197-0.47518 0.05939-0.096912 0.11566-0.18757 0.1313-0.25322 0.19069-0.84251 0.66899-0.95037 1.0644-0.95037 0.02501 0 0.05158 0 0.08128 0.00157 0.8425 0.025008 0.92693 0.43141 0.97694 0.67526 0.0094 0.045328 0.01877 0.087536 0.02968 0.11566 0.27826 0.68307 0.32357 1.0957 0.1532 1.3771-0.19539 0.32357-0.65496 0.42829-1.2833 0.48768-0.04376 0.00467-0.08752 0.00624-0.1313 0.00624"/>
   <path id="path37" d="m34.528 7.1349c0.0063-0.014048 0.0125-0.02968 0.01877-0.04376 0.06408-0.15317 0.11254-0.2876 0.03595-0.37357-0.09066-0.10005-0.47363-0.28136-0.81437-0.4408-0.65181-0.30792-1.0551-0.50645-1.1129-0.70339-0.01406-0.050016-0.0078-0.1016 0.01877-0.14536 0.11254-0.17664 0.42672-0.36576 0.85658-0.36576h0.0125c0.40485 0.00314 0.6987 0.12035 0.87533 0.34544 0.15006 0.19069 0.18288 0.41422 0.20789 0.57678 0.0078 0.054704 0.01875 0.12504 0.0297 0.14381 0.30635 0.52677 0.16566 0.91597 0.0547 1.0988l-0.18288-0.09224z"/>
   <path id="path39" d="m34.207 6.5284c-0.15787 0-0.42205-0.039072-0.5127-0.12661-0.07189-0.068784-0.09846-0.18288-0.12659-0.29387-0.01096-0.046896-0.02971-0.12192-0.04691-0.1563h-0.0016c-0.0063 0.0172-0.01406 0.039072-0.02032 0.056272-0.04221 0.1188-0.1016 0.28293-0.22507 0.372-0.05315 0.039072-0.24541 0.073472-0.3939 0.073472-0.1485 0-0.26102-0.031264-0.33606-0.095328-0.10786-0.090672-0.18914-0.25792-0.24384-0.49707-0.0031-0.00157-0.0047-0.00314-0.0078-0.00469-0.02499-0.017184-0.05782-0.03752-0.07502-0.073456-0.02813-0.056272-0.0172-0.1563 0.0125-0.20946 0.02189-0.039072 0.05941-0.06408 0.10005-0.067216h0.01406c0.02187 0 0.04376 0.00314 0.06877 0.00782 0.02501 0.00469 0.0547 0.00938 0.07971 0.00938h0.01406c0.1485-0.021872 0.28762-0.031264 0.41422-0.031264 0.30794 0 0.4705 0.062528 0.53146 0.087536 0.0047 0.00157 0.0094 0.00312 0.0125 0.00469 0.0172 0.00469 0.05002 0.010944 0.08442 0.010944 0.0125 0 0.02499 0 0.03595-0.00312 0.1391-0.021888 0.27198-0.031264 0.39389-0.031264 0.32512 0 0.49706 0.073472 0.5721 0.1063 0.0063 0.00312 0.0125 0.00626 0.0172 0.00626h0.0062c0.02034 0 0.05003-0.00626 0.07502-0.010944 0.01877-0.00469 0.03752-0.00781 0.0547-0.010944h0.01408c0.04845 0 0.09224 0.028128 0.1188 0.075024 0.0297 0.054704 0.05002 0.16882 0.0078 0.23446-0.02814 0.04376-0.07346 0.06408-0.11099 0.08128-0.0047 0.00155-0.01094 0.00469-0.01563 0.00781-0.0125 0.021888-0.03438 0.065648-0.05315 0.1016-0.0547 0.10629-0.11566 0.22821-0.17194 0.29386-0.04997 0.056256-0.14376 0.082832-0.286 0.082832"/>
  </g>
  <g id="g41" transform="matrix(.016 0 0 .016 31.541 4.8965)">
   <g id="g43">
    <clipPath id="clipPath5038">
     <use id="use5040" xlink:href="#SVGID_1_" height="100%" width="100%" y="0" x="0" overflow="visible"/>
    </clipPath>
    <g id="g51" opacity=".3" clip-path="url(#SVGID_2_)">
     <g id="g53" transform="translate(443.98 368.78)">
      <path id="path55" fill="#fff" d="m-281.24-268.37c-7.815 0-18.855-1.172-26.769-6.741-4.494-3.224-6.545-9.671-9.378-20.027-0.782-2.931-1.954-7.034-2.833-9.085-0.488 1.172-1.075 2.735-1.563 4.005-2.931 7.913-6.936 18.659-14.263 23.153-3.811 2.345-15.631 4.493-24.814 4.493-9.867 0-16.999-2.246-21.102-6.544-10.453-10.942-12.505-21.396-13.775-27.55-0.195-0.879-0.391-2.052-0.586-2.736-6.154-3.224-6.545-8.01-6.448-10.062 0.293-3.81 3.224-6.643 6.839-6.643 2.442 0 4.005 1.172 5.177 1.954 0.098 0.097 0.196 0.195 0.391 0.195 0.098 0 0.391 0.098 0.489 0.196 1.562 0.488 6.154 1.758 7.131 7.718 0.195 1.075 1.758 7.327 4.298 13.873 4.005 10.453 6.838 12.211 7.132 12.309 3.321 1.172 7.229 1.758 11.625 1.758 7.229 0 13.286-1.563 15.729-2.344 1.465-2.248 4.396-8.109 6.447-12.114 6.155-12.212 7.23-14.068 9.867-15.436 1.465-0.781 3.224-1.172 5.471-1.172 2.931 0 7.132 0.684 9.086 1.562 4.493 1.954 6.838 7.815 12.114 22.958 0.977 2.736 2.148 6.253 2.931 8.011 3.907 1.856 12.797 3.126 22.078 3.126 2.637 0 4.591-0.098 5.861-0.195 0.88-1.856 2.148-4.494 3.224-6.741 7.426-15.827 8.597-17.683 10.454-19.148 3.224-2.442 8.89-4.104 12.114-4.104 4.298 0 6.642 2.833 7.229 5.569 1.075 5.666-4.494 7.815-6.351 8.5-0.488 0.195-1.172 0.488-1.66 0.684-0.684 1.172-1.954 3.712-2.932 5.764-8.01 15.631-10.648 19.93-13.677 21.786-3.71 2.051-12.698 3.028-19.536 3.028"/>
     </g>
    </g>
   </g>
  </g>
  <g id="g57" transform="matrix(.016 0 0 .016 31.541 4.8965)">
   <g id="g59">
    <clipPath id="clipPath5049">
     <use id="use5051" xlink:href="#SVGID_3_" height="100%" width="100%" y="0" x="0" overflow="visible"/>
    </clipPath>
    <g id="g67" opacity=".3" clip-path="url(#SVGID_4_)">
     <g id="g69" transform="translate(285.29 440.12)">
      <path id="path71" fill="#fff" d="m-225.51-385.98c-1.172 0-3.419-0.196-7.913-1.661-1.172-0.391-2.247-0.781-2.931-1.075-1.466-0.586-5.275-2.052-5.275-6.545v-6.546h6.448c0.879 0 1.465 0.196 1.954 0.293 1.368 0.196 5.764 0.488 7.229 0.586l0.879 0.098c1.173 0 4.787-0.488 6.35-0.684 1.954-0.293 2.54-0.391 3.322-0.391h5.568l0.879 5.471c0.391 2.735-1.075 6.155-4.689 7.229-0.195 0.098-0.879 0.293-1.465 0.488-3.419 1.271-6.838 2.442-9.769 2.54-0.196 0.197-0.391 0.197-0.587 0.197"/>
     </g>
    </g>
   </g>
  </g>
  <g id="g73" transform="matrix(.016 0 0 .016 31.541 4.8965)">
   <g id="g75">
    <clipPath id="clipPath5060">
     <use id="use5062" xlink:href="#SVGID_5_" height="100%" width="100%" y="0" x="0" overflow="visible"/>
    </clipPath>
    <g id="g83" opacity=".3" clip-path="url(#SVGID_6_)">
     <g id="g85" transform="translate(484.29 425.61)">
      <path id="path87" fill="#fff" d="m-295.46-362.1c-2.149 0-4.299-0.879-7.23-2.931-2.833-1.954-4.981-3.908-4.981-7.327v-6.545h6.35c0.88 0 1.759 0.195 2.638 0.586 0.685 0.293 3.321 1.172 4.494 1.465 0.39 0 1.173-0.196 2.735-0.488 0.782-0.196 1.271-0.196 1.954-0.196h5.568l0.879 5.471c0.391 2.638-0.78 5.959-4.396 7.229-0.194 0.098-0.78 0.391-1.172 0.586-1.759 0.879-3.811 1.856-5.861 2.247-0.197-0.097-0.588-0.097-0.978-0.097"/>
     </g>
    </g>
   </g>
   <path id="path89" fill="#fff" d="m167.54 207.01h-24.033v-20.808h24.033v20.808z"/>
  </g>
  <path id="path91" fill="#ba8449" d="m34.396 7.3771c-0.01408-0.018752-0.0297-0.035952-0.0469-0.051584-0.0031-0.00312-0.0078-0.00781-0.01096-0.010944 0 0-0.0016 0-0.0031-0.00157-0.0078-0.00312-0.01877-0.00469-0.0297-0.00627-0.04533-0.00624-0.09379-0.00781-0.14224-0.00936-0.09846-0.00157-0.19696 0.00155-0.29544 0.00626-0.19694 0.00938-0.39546 0.024992-0.59085 0.046896-0.09846 0.010944-0.19694 0.023456-0.29386 0.039072-0.04845 0.00781-0.09691 0.015648-0.14381 0.02656-0.02344 0.0047-0.0469 0.01096-0.06877 0.0172-0.01094 0.00312-0.02189 0.00626-0.03126 0.01096-0.0047 0.00155-0.0094 0.0031-0.01094 0.00624 0 0-0.0016 0-0.0016 0.00158-0.01094 0.015632-0.02189 0.031264-0.03283 0.048448s-0.01875 0.035936-0.02813 0.054704c-0.0172 0.03752-0.03282 0.076592-0.0469 0.11566-0.01408 0.039072-0.0297 0.079712-0.04378 0.12034-0.0078 0.020336-0.01563 0.040656-0.02501 0.060976-0.0031 0.00938-0.0078 0.018768-0.0125 0.028128h0.13286c0.0719-0.16099 0.20789-0.34542 0.32043-0.39077 0.03126-0.012496 0.53458-0.075024 0.8675-0.075024 0.1235 0 0.20789 0.00938 0.25478 0.026576 0.136 0.053136 0.40798 0.30482 0.43611 0.4408h0.07659c-0.01565-0.085968-0.04691-0.17037-0.08285-0.25166-0.04062-0.093792-0.08909-0.17976-0.1469-0.25322"/>
  <path id="path93" fill="#ba8449" d="m34.337 7.3115z"/>
  <path id="path95" fill="#895c2f" d="m34.337 7.3115zm0.27826 0.27979c-0.04221-0.093792-0.09067-0.1829-0.15475-0.26416-0.01563-0.020336-0.03283-0.040656-0.05158-0.059424-0.0047-0.00467-0.0094-0.00936-0.01408-0.014048l-0.0031-0.00314-0.0016-0.00155-0.0031-0.00312c-0.0031-0.00158-0.0063-0.00314-0.0078-0.00469-0.0047-0.00314-0.0094-0.0047-0.01406-0.00627-0.0172-0.00626-0.0297-0.00781-0.04378-0.010944-0.05314-0.00782-0.10315-0.00938-0.15317-0.01096-0.10162-0.00155-0.20008 0-0.30013 0.0047-0.20006 0.00781-0.39858 0.023456-0.59709 0.04376-0.09846 0.010944-0.19851 0.021872-0.29856 0.037504-0.05 0.00781-0.09846 0.015648-0.1485 0.026576-0.02499 0.00627-0.05002 0.01096-0.07502 0.018768-0.0125 0.00312-0.02501 0.00781-0.03907 0.014064-0.0063 0.00312-0.01406 0.00626-0.02189 0.010944-0.0031 0.00312-0.0078 0.0047-0.01251 0.00781-0.0047 0.00312-0.0094 0.00781-0.01563 0.015632-0.01406 0.017216-0.02813 0.037536-0.04064 0.056288-0.01251 0.018768-0.02501 0.039072-0.03595 0.059408-0.02189 0.039072-0.04221 0.079696-0.06096 0.12035-0.0172 0.040624-0.03438 0.08128-0.04846 0.12347-0.0078 0.020336-0.01406 0.040656-0.01875 0.062528-0.0031 0.010944-0.0063 0.020336-0.0094 0.031248l-0.0047 0.015648-0.0016 0.00781c0 0.00158 0.0031 0.00312 0.0094 0.00781h0.0016 0.09067c0.0047-0.00938 0.0078-0.018736 0.01251-0.028128 0.0078-0.020336 0.0172-0.04064 0.02501-0.059408 0.01563-0.040624 0.0297-0.079696 0.04376-0.12035 0.01406-0.039072 0.0297-0.079696 0.0469-0.11566 0.0094-0.018752 0.01875-0.035952 0.02814-0.054704 0.01094-0.0172 0.02032-0.032848 0.03282-0.048464 0 0 0.0016 0 0.0016-0.00157 0.0031-0.00157 0.0078-0.00312 0.01094-0.00626 0.0094-0.00312 0.02032-0.00781 0.03126-0.01096 0.02189-0.00624 0.04533-0.012496 0.06878-0.017184 0.0469-0.010944 0.09534-0.018752 0.14381-0.02656 0.09691-0.015648 0.19538-0.028144 0.29386-0.039072 0.19694-0.021872 0.3939-0.03752 0.59083-0.046912 0.09848-0.00467 0.19698-0.00781 0.29544-0.00624 0.04845 0.00157 0.09846 0.0031 0.14224 0.00938 0.01094 0.00155 0.02189 0.00469 0.0297 0.00626 0.0016 0 0.0031 0 0.0031 0.00157 0.0031 0.00312 0.0078 0.00781 0.01094 0.010944 0.0172 0.017184 0.03126 0.034384 0.0469 0.051584 0.05784 0.073472 0.1063 0.15946 0.14694 0.24698 0.03595 0.08128 0.0672 0.1657 0.08285 0.25166h0.07816c-0.0078-0.048464-0.02034-0.09536-0.03438-0.14067-0.0188-0.048448-0.03757-0.095344-0.05787-0.14224"/>
  <path id="path97" fill="#fff8ef" d="m34.102 7.4647c-0.04064-0.015648-0.12349-0.025008-0.24229-0.025008-0.3345 0-0.82843 0.062512-0.85501 0.073472-0.1016 0.04064-0.22821 0.21258-0.29854 0.36264h1.8116c-0.0297-0.11725-0.28134-0.35795-0.41578-0.4111"/>
  <path id="path99" fill="#e5d1ae" d="m34.113 7.435c-0.04531-0.017184-0.13128-0.026576-0.25478-0.026576-0.33293 0-0.83626 0.062512-0.8675 0.07504-0.1141 0.046896-0.24853 0.22974-0.32043 0.39077h0.03438c0.07034-0.1485 0.19694-0.32043 0.29854-0.36264 0.02658-0.010944 0.52051-0.073472 0.85501-0.073472 0.1188 0 0.20166 0.00781 0.24229 0.024992 0.13442 0.0516 0.3861 0.29387 0.41578 0.4111h0.03126c-0.02656-0.13442-0.29854-0.38608-0.43454-0.43922"/>
  <path id="path101" fill="#ba8449" d="m34.732 7.449c-0.01877 0.039072-0.11723 0.1391-0.2001 0.11566-0.04376-0.012496-0.03594 0.21883 0.0641 0.31106h0.18131c0.05003-0.079712 0.12819-0.32357 0.13755-0.34858 0.01094-0.029696-0.16411-0.11722-0.18286-0.078144"/>
  <path id="path103" fill="#895c2f" d="m34.925 7.5069c-0.0031-0.050016-0.03283-0.085968-0.08597-0.09848-0.04221-0.00938-0.09846-0.00157-0.11254 0.025008-0.02813 0.053136-0.06251 0.11723-0.23291 0.12661-0.01093 0-0.02032 0.010944-0.02032 0.021888s0.01094 0.02032 0.02189 0.02032c0.17819-0.00781 0.22978-0.076592 0.26728-0.14694 0.0078-0.00626 0.05002-0.014064 0.0844 0 0.02501 0.010944 0.03595 0.02816 0.03752 0.054704 0.0047 0.096928-0.09691 0.27667-0.15162 0.36733h0.04845c0.06101-0.10627 0.14851-0.2704 0.14382-0.37043"/>
  <g id="g105" transform="matrix(.016 0 0 .016 31.541 4.8965)">
   <g id="g107">
    <clipPath id="clipPath5079">
     <use id="use5081" xlink:href="#SVGID_7_" height="100%" width="100%" y="0" x="0" overflow="visible"/>
    </clipPath>
    <g id="g115" opacity=".15" clip-path="url(#SVGID_8_)">
     <g id="g117" transform="translate(485.34 236)">
      <path id="path119" fill="#e3ac5e" d="m-295.78-49.504c6.937-1.66 13.091-8.597 13.58-18.463 0.097-1.856-3.713-5.373-3.713-6.35 0-0.978 11.625 0.194 12.212 2.931 0.488 2.734-7.229 19.244-9.867 21.98-2.54 2.637-16.314 0.879-12.212-0.098"/>
     </g>
    </g>
   </g>
  </g>
  <path id="path121" fill="#fdd5c4" d="m34.66 7.3412c-0.01406 0.096928 0.17506 0.22978 0.30323 0.22666 0.1063-0.00312 0.22666-0.053136 0.20946-0.11254-0.01718-0.06096-0.12034 0.010944-0.12973-0.031264-0.0078-0.040624 0.12035-0.11723 0.06878-0.1735-0.04846-0.051584-0.10474 0.081296-0.16099 0.062528-0.05629-0.018768 0.01094-0.1485-0.05941-0.15632-0.08285-0.00781-0.05158 0.17662-0.11411 0.17976-0.04379 0.00469-0.11256-0.026576-0.11723 0.00469"/>
  <path id="path123" d="m34.66 7.3412c-0.01406 0.096928 0.17506 0.22978 0.30323 0.22666 0.1063-0.00312 0.22666-0.053136 0.20946-0.11254-0.01718-0.06096-0.12034 0.010944-0.12973-0.031264-0.0078-0.040624 0.12035-0.11723 0.06878-0.1735-0.04846-0.051584-0.10474 0.081296-0.16099 0.062528-0.05629-0.018768 0.01094-0.1485-0.05941-0.15632-0.08285-0.00781-0.05158 0.17662-0.11411 0.17976-0.04379 0.00469-0.11256-0.026576-0.11723 0.00469z" stroke="#f8a490" stroke-miterlimit="10" stroke-width=".031262" fill="none"/>
  <g id="g125" transform="matrix(.016 0 0 .016 31.541 4.8965)">
   <g id="g127">
    <clipPath id="clipPath5092">
     <use id="use5094" xlink:href="#SVGID_9_" height="100%" width="100%" y="0" x="0" overflow="visible"/>
    </clipPath>
    <g id="g135" opacity=".5" clip-path="url(#SVGID_10_)">
     <g id="g137" transform="translate(498.94 288.04)">
      <path id="path139" fill="#fdd5c4" d="m-300.58-135.31c1.271 0.977 5.862 2.246 6.546 0.586 0.781-1.66 1.367-4.982 0.879-5.471-0.391 1.562-0.879 4.493-2.54 5.178-1.27 0.488-4.006-0.099-4.885-0.293"/>
     </g>
    </g>
   </g>
  </g>
  <g id="g141" transform="matrix(.016 0 0 .016 31.541 4.8965)">
   <g id="g143">
    <clipPath id="clipPath5103">
     <use id="use5105" xlink:href="#SVGID_11_" height="100%" width="100%" y="0" x="0" overflow="visible"/>
    </clipPath>
    <g id="g151" opacity=".5" clip-path="url(#SVGID_12_)">
     <g id="g153" transform="translate(518.46 298.04)">
      <path id="path155" fill="#fdd5c4" d="m-307.48-151.75c-0.195 1.074-1.075 6.153 1.562 6.838 2.247 0.586 3.908-0.782 5.666-3.615-0.977 0.88-3.419 3.029-5.274 2.247-1.856-0.88-2.053-2.834-1.954-5.47"/>
     </g>
    </g>
   </g>
  </g>
  <g id="g157" transform="matrix(.016 0 0 .016 31.541 4.8965)">
   <g id="g159">
    <clipPath id="clipPath5114">
     <use id="use5116" xlink:href="#SVGID_13_" height="100%" width="100%" y="0" x="0" overflow="visible"/>
    </clipPath>
    <g id="g167" opacity=".25" clip-path="url(#SVGID_14_)">
     <g id="g169" transform="translate(500.88 276.96)">
      <path id="path171" fill="#fdd5c4" d="m-301.21-116.98c13.285-6.546 16.021 4.102 15.337 6.252-5.276 0.879-14.556-4.593-15.337-6.252"/>
     </g>
    </g>
   </g>
  </g>
  <g id="g173" transform="matrix(.016 0 0 .016 31.541 4.8965)">
   <g id="g175">
    <clipPath id="clipPath5125">
     <use id="use5127" xlink:href="#SVGID_15_" height="100%" width="100%" y="0" x="0" overflow="visible"/>
    </clipPath>
    <g id="g183" opacity=".5" clip-path="url(#SVGID_16_)">
     <g id="g185" transform="translate(530.75 283.4)">
      <path id="path187" fill="#fdd5c4" d="m-311.77-127.58c-2.248 2.541-1.174 4.592 0.291 4.885 1.857 0.391 4.3-1.563 3.908-1.563-0.488 0-4.103 1.174-4.786-0.586-0.488-1.368 0.293-2.149 0.587-2.736"/>
     </g>
    </g>
   </g>
  </g>
  <g id="g189" transform="matrix(.016 0 0 .016 31.541 4.8965)">
   <g id="g191">
    <clipPath id="clipPath5136">
     <use id="use5138" xlink:href="#SVGID_17_" height="100%" width="100%" y="0" x="0" overflow="visible"/>
    </clipPath>
    <g id="g199" opacity=".15" clip-path="url(#SVGID_18_)">
     <g id="g201" transform="translate(296.83 257.17)">
      <path id="path203" fill="#e3ac5e" d="m-229.59-84.38c42.691 24.521 127.39-0.391 122.9-8.401-5.959-10.648-8.304-17.292-21.396-16.705-12.993 0.684-96.618 7.327-100.04 9.867-3.321 2.637-7.034 12.015-1.465 15.239"/>
     </g>
    </g>
   </g>
  </g>
  <path id="path205" fill="#fff8ef" d="m34.106 5.3045c0.30637-0.028128 0.48613-0.34544 0.67213-0.29699-0.12504 0.07816-0.24851 0.23446-0.42203 0.49082-0.04221 0.06096-0.33448-0.18602-0.2501-0.19382"/>
  <path id="path207" stroke-linejoin="round" d="m34.106 5.3045c0.30637-0.028128 0.48613-0.34544 0.67213-0.29699-0.12504 0.07816-0.24851 0.23446-0.42203 0.49082-0.04221 0.06096-0.33448-0.18602-0.2501-0.19382z" stroke="#e5d1ae" stroke-linecap="round" stroke-miterlimit="10" stroke-width=".046893" fill="none"/>
  <path id="path209" fill="#ba8449" d="m32.191 5.2357c0.13755-0.12818 0.38608-0.07816 0.58616-0.00626 0.11411 0.04064 0.26261 0.00781 0.27198 0.031264 0.02499 0.054704-0.12349 0.16725-0.24541 0.16413-0.12037-0.00157-0.322-0.22822-0.61274-0.18914"/>
  <path id="path211" stroke-linejoin="round" d="m32.191 5.2357c0.13755-0.12818 0.38608-0.07816 0.58616-0.00626 0.11411 0.04064 0.26261 0.00781 0.27198 0.031264 0.02499 0.054704-0.12349 0.16725-0.24541 0.16413-0.12037-0.00157-0.322-0.22822-0.61274-0.18914z" stroke="#895c2f" stroke-linecap="round" stroke-miterlimit="10" stroke-width=".031262" fill="none"/>
  <path id="path213" fill="#fdd5c4" d="m34.315 5.4561c0.07034 0.02032 0.33762-0.50333 0.46734-0.45174 0.41267 0.16413-0.12504 0.79562-0.29541 0.80968-0.17194 0.012496-0.21102-0.37046-0.17194-0.35794"/>
  <path id="path215" d="m34.315 5.4561c0.07034 0.02032 0.33762-0.50333 0.46734-0.45174 0.41267 0.16413-0.12504 0.79562-0.29541 0.80968-0.17194 0.012496-0.21102-0.37046-0.17194-0.35794z" stroke="#f8a490" stroke-miterlimit="10" stroke-width=".031262" fill="none"/>
  <path id="path217" fill="#fdd5c4" d="m32.824 5.3936c-0.1141 0.050016-0.51894-0.37358-0.68931-0.1016-0.11254 0.17974 0.22821 0.54238 0.47205 0.58146 0.24384 0.039072 0.27666-0.50642 0.21726-0.47986"/>
  <path id="path219" d="m32.824 5.3936c-0.1141 0.050016-0.51894-0.37358-0.68931-0.1016-0.11254 0.17974 0.22821 0.54238 0.47205 0.58146 0.24384 0.039072 0.27666-0.50642 0.21726-0.47986z" stroke="#f8a490" stroke-miterlimit="10" stroke-width=".031262" fill="none"/>
  <g id="g221" transform="matrix(.016 0 0 .016 31.541 4.8965)">
   <g id="g223">
    <clipPath id="clipPath5155">
     <use id="use5157" xlink:href="#SVGID_19_" height="100%" width="100%" y="0" x="0" overflow="visible"/>
    </clipPath>
    <g id="g231" clip-path="url(#SVGID_20_)">
     <g id="g233" transform="translate(491.17 503.5)">
      <path id="path235" fill="#fdd5c4" d="m-297.87-490.41c-1.366 4.494-12.895 16.119-11.332 26.084 0.586 3.712 4.494 14.654 6.156 14.264 1.66-0.391 5.861-3.029 5.47-2.442-0.391 0.586-5.861 4.591-7.912 5.666-2.053-1.075-10.746-21.297-9.478-22.372 3.811-3.42 15.437-21.005 17.096-21.2"/>
     </g>
    </g>
   </g>
  </g>
  <g id="g237" transform="matrix(.016 0 0 .016 31.541 4.8965)">
   <g id="g239">
    <clipPath id="clipPath5166">
     <use id="use5168" xlink:href="#SVGID_21_" height="100%" width="100%" y="0" x="0" overflow="visible"/>
    </clipPath>
    <g id="g247" clip-path="url(#SVGID_22_)">
     <g id="g249" transform="translate(250.83 484.5)">
      <path id="path251" fill="#fdd5c4" d="m-213.38-459.1c7.815-4.787 22.078-2.735 30.382 5.374 2.931 2.931 3.81 12.7-2.833 19.343-2.638 2.638 15.631-9.378 15.729-12.896 0-3.517-1.172-4.494-3.908-5.471-10.062-3.712-20.613-12.309-29.796-12.114-5.96 0.098-8.695 4.201-9.574 5.764"/>
     </g>
    </g>
   </g>
  </g>
  <g id="g253" transform="matrix(.016 0 0 .016 31.541 4.8965)">
   <g id="g255">
    <clipPath id="clipPath5177">
     <use id="use5179" xlink:href="#SVGID_23_" height="100%" width="100%" y="0" x="0" overflow="visible"/>
    </clipPath>
    <g id="g263" opacity=".25" clip-path="url(#SVGID_24_)">
     <g id="g265" transform="translate(496 507.38)">
      <path id="path267" fill="#fdd5c4" d="m-299.54-496.85c17.78 9.769-10.844 24.619-8.694 43.083-3.713-0.391-12.896-18.268-10.648-19.832 3.126-2.149 16.314-24.032 19.342-23.251"/>
     </g>
    </g>
   </g>
  </g>
  <path id="path269" fill="#e5d1ae" d="m32.489 6.0251c0.0047-0.020336 0.0078-0.042208 0.0078-0.062528 0.0016-0.021888 0.0031-0.043776 0.0078-0.06408 0.0016-0.010944 0.0047-0.021888 0.0094-0.031264 0.0047-0.00938 0.0078-0.02032 0.01094-0.029696 0.0078-0.020336 0.01563-0.04064 0.02499-0.059408 0.03595-0.079712 0.07659-0.15474 0.12661-0.22507 0.05002-0.070336 0.10474-0.13598 0.16726-0.19226 0.06253-0.05784 0.13598-0.10474 0.21414-0.136 0.07814-0.032832 0.16256-0.053152 0.24698-0.062528 0.0844-0.010944 0.16882-0.012512 0.25322-0.010944 0.0844 0.00155 0.16882 0.00626 0.25322 0.017184 0.08442 0.010944 0.16882 0.029696 0.2501 0.059392 0.04064 0.015632 0.07971 0.032832 0.11723 0.054704s0.07347 0.048448 0.10629 0.079712c0.03285 0.029696 0.06098 0.065648 0.08442 0.10315 0.02344 0.03752 0.04062 0.07816 0.05627 0.12035 0.01408 0.040656 0.02501 0.082848 0.03438 0.12504 0.0094 0.042208 0.01563 0.082848 0.02499 0.12192 0.0047 0.018752 0.01096 0.03752 0.0172 0.056272 0.0078 0.018752 0.01563 0.039072 0.02187 0.059392 0.01408 0.039072 0.0297 0.079712 0.04378 0.11878 0.0547 0.15944 0.10315 0.322 0.13286 0.48768 0.01406 0.082848 0.02499 0.16726 0.02656 0.25166 0.0016 0.084416-0.0063 0.16882-0.02968 0.25008-0.0063 0.020336-0.0125 0.040656-0.02032 0.059424-0.0078 0.018736-0.01877 0.037504-0.02502 0.057808-0.0031 0.01096-0.0062 0.020336-0.01094 0.029696-0.0047 0.00938-0.01094 0.018768-0.01718 0.028144-0.01096 0.0172-0.02499 0.035936-0.03907 0.051584-0.0547 0.065664-0.12504 0.1188-0.20008 0.15944-0.07501 0.040656-0.15632 0.071904-0.2376 0.09536-0.08283 0.02344-0.16413 0.042192-0.24853 0.057808-0.0844 0.015648-0.16723 0.026576-0.2501 0.037536-0.04219 0.00469-0.0844 0.00938-0.12661 0.014064l-0.06253 0.00626c-0.02032 0.00158-0.04221 0.00312-0.06408 0.00469-0.17194 0.00939-0.34389-0.015632-0.508-0.06096-0.08285-0.023456-0.16256-0.051584-0.24072-0.085968s-0.15474-0.073472-0.22666-0.12035c-0.03595-0.023456-0.0719-0.050032-0.10472-0.079712-0.0078-0.00781-0.01718-0.015632-0.02501-0.02344-0.0078-0.00781-0.01406-0.0172-0.02189-0.025008-0.01406-0.017184-0.02813-0.034384-0.04064-0.051584-0.04845-0.071904-0.08754-0.15632-0.10003-0.24384-0.01406-0.089088-0.0016-0.17976 0.02344-0.26261 0.02501-0.0844 0.06408-0.16099 0.10472-0.23602 0.04221-0.073472 0.08754-0.14536 0.1313-0.2157 0.02189-0.035952 0.04221-0.071904 0.06096-0.10786 0.01723-0.046864 0.03286-0.082816 0.04067-0.12032zm0.06253 0.014064c-0.01094 0.04376-0.0297 0.0844-0.05002 0.12349-0.02032 0.039088-0.04221 0.075024-0.06408 0.11099-0.04378 0.071888-0.0891 0.14224-0.12818 0.21414-0.03907 0.071904-0.07502 0.14693-0.09691 0.22352-0.02189 0.076592-0.03126 0.1563-0.01875 0.23446 0.0125 0.076592 0.04533 0.15005 0.09222 0.21414 0.01094 0.015648 0.02501 0.031264 0.03752 0.046912 0.0063 0.00781 0.01406 0.015632 0.02034 0.021872 0.0063 0.00781 0.01406 0.014064 0.02032 0.020336 0.02814 0.02656 0.06096 0.05 0.09534 0.073456 0.06877 0.043776 0.14067 0.082864 0.21726 0.11566 0.07504 0.032816 0.15318 0.060976 0.2329 0.082848 0.07971 0.021888 0.15944 0.039072 0.24072 0.050016 0.08128 0.01096 0.16256 0.01408 0.24384 0.01096 0.02032-0.00158 0.04064-0.00314 0.06098-0.00469l0.06253-0.00627c0.04064-0.00312 0.08283-0.00781 0.12504-0.012496 0.08285-0.00781 0.16568-0.018768 0.24698-0.032832 0.08285-0.014064 0.16256-0.02968 0.24229-0.051584 0.0797-0.021872 0.15786-0.046896 0.23291-0.079712 0.07346-0.034384 0.14536-0.076592 0.2032-0.13443 0.01406-0.014048 0.02813-0.02968 0.04062-0.045312 0.0063-0.00781 0.01251-0.0172 0.01877-0.025008 0.0063-0.00782 0.01406-0.015648 0.02032-0.025008 0.01408-0.017184 0.02034-0.035936 0.02971-0.054704 0.0078-0.018768 0.01405-0.039072 0.01874-0.059392 0.02034-0.08128 0.02501-0.1657 0.02034-0.24854-0.0063-0.082848-0.02034-0.16568-0.04064-0.24698-0.03907-0.16256-0.09693-0.31886-0.15787-0.47362-0.01563-0.039072-0.03125-0.07816-0.0469-0.11568l-0.02501-0.057824c-0.0078-0.02032-0.01563-0.042208-0.02187-0.062528-0.01094-0.042208-0.01875-0.082848-0.02813-0.12349-0.0078-0.04064-0.01877-0.079712-0.03126-0.11723-0.02658-0.076608-0.06566-0.14538-0.12349-0.20008-0.05627-0.054704-0.12661-0.096912-0.20166-0.12816-0.07501-0.031264-0.1563-0.051584-0.23758-0.065664-0.08128-0.014064-0.16413-0.021888-0.24698-0.026576-0.08285-0.00312-0.16725-0.00469-0.2501 0.00469s-0.16413 0.026576-0.2407 0.059392c-0.07661 0.031264-0.14694 0.076592-0.20634 0.13286-0.06096 0.056272-0.10941 0.12504-0.14536 0.19696-0.03752 0.073472-0.0641 0.15163-0.08754 0.22978-0.0063 0.018752-0.01094 0.039072-0.01563 0.059392-0.0031 0.00938-0.0047 0.02032-0.0078 0.029696-0.0016 0.00469-0.0016 0.010944-0.0031 0.015632-0.0016 0.00469-0.0031 0.00938-0.0063 0.014064-0.0078 0.018768-0.0172 0.03752-0.02658 0.056272-0.0032 0.017168-0.0094 0.035936-0.01413 0.056256z"/>
  <path id="path271" fill="#fff8ef" d="m32.521 6.0329c-0.06565 0.29074-0.63931 0.75029-0.2032 1.2208 0.1485 0.15944 0.62994 0.40483 1.1129 0.3595 1.2567-0.1188 1.574-0.42203 1.0442-1.7225-0.08597-0.21101 0.01093-0.6987-0.91286-0.72683-0.38765-0.01096-0.85344 0.042192-1.041 0.86907"/>
  <path id="path273" fill="#e5bfa1" d="m32.738 5.4639c0.04064-0.062528 0.09379-0.11411 0.15318-0.15632 0.05939-0.042208 0.12661-0.073472 0.19382-0.09848 0.13755-0.050016 0.28136-0.068768 0.42517-0.073456 0.14381-0.00314 0.28917 0.00781 0.42984 0.04376 0.07034 0.018752 0.1391 0.04376 0.20477 0.079712 0.06566 0.035952 0.12662 0.079712 0.17821 0.13442 0.05158 0.054704 0.09378 0.11566 0.12659 0.18288 0.03285 0.067216 0.05629 0.13755 0.07347 0.20789 0.01718 0.071904 0.02814 0.14224 0.03754 0.21258 0.0047 0.035952 0.0094 0.070336 0.01718 0.10317 0.0031 0.0172 0.0078 0.032832 0.0125 0.045328 0.0016 0.00314 0.0031 0.00626 0.0047 0.00938l0.0016 0.00157 0.0016 0.00157 0.0031 0.00626 0.01408 0.023456c0.06877 0.12661 0.12034 0.26571 0.1391 0.41109 0.0094 0.07192 0.01094 0.14536 0.0031 0.21883-0.0078 0.071904-0.02658 0.14379-0.0547 0.21101-0.01408 0.032832-0.0297 0.065664-0.04845 0.098464-0.0047 0.00781-0.0094 0.015632-0.01408 0.023456-0.0047 0.00781-0.0094 0.014064-0.01563 0.02344-0.0016 0.00158-0.0016 0.00312-0.0031 0.0047-0.0047-0.00312 0.0063 0.010944-0.02501 0-0.0078-0.01408-0.0031-0.010944-0.0047-0.01408 0-0.00469 0.0016-0.00626 0.0016-0.00936l0.0047-0.01408 0.0078-0.024992c0.02189-0.067232 0.04066-0.13443 0.04846-0.20478 0.0031-0.034384 0.0047-0.068768 0-0.10472-0.0047-0.034368-0.01408-0.067216-0.03126-0.095344-0.0047-0.00782-0.0094-0.01408-0.01563-0.02032-0.0063-0.00626-0.01096-0.012496-0.0172-0.018752-0.0125-0.012496-0.02499-0.02344-0.03907-0.034384-0.02814-0.021872-0.05784-0.039072-0.08909-0.054704-0.0641-0.028128-0.13442-0.039072-0.2032-0.035952-0.07034 0.00312-0.1391 0.017184-0.20634 0.035952-0.03438 0.00939-0.06722 0.02032-0.1016 0.031264-0.0172 0.00626-0.03438 0.010944-0.0516 0.015632-0.0094 0.00312-0.01718 0.00467-0.02814 0.00626-0.0094 0.00155-0.01718 0.00312-0.02656 0.00312-0.0719 0.00782-0.14224 0.012496-0.2157 0.010928-0.0719-0.00155-0.14381-0.00938-0.21571-0.024992-0.07034-0.015632-0.14067-0.039072-0.20634-0.068784-0.06565-0.031264-0.12818-0.068768-0.18445-0.11566-0.05627-0.046896-0.10629-0.10003-0.15005-0.15787-0.08754-0.11723-0.14536-0.25322-0.1735-0.39546-0.01406-0.071904-0.02032-0.14381-0.01718-0.21728 0.0016-0.035952 0.0063-0.073456 0.01406-0.10941 0.0094-0.028144 0.02186-0.064096 0.04219-0.096912zm0.03126 0.020304c-0.01718 0.028128-0.02813 0.059392-0.03595 0.093792-0.0078 0.032832-0.01094 0.067216-0.01406 0.1016-0.0031 0.068768 0.0047 0.1391 0.01875 0.20634 0.0297 0.13598 0.08754 0.26573 0.17194 0.37514 0.04221 0.054704 0.09067 0.10474 0.14381 0.1485s0.11254 0.08128 0.17507 0.11098c0.06253 0.029696 0.12816 0.051584 0.19694 0.067216 0.06722 0.015632 0.13755 0.025008 0.20634 0.026576 0.07034 0.00312 0.13912 0 0.20946-0.00782l0.02656-0.00312c0.0078-0.00155 0.01565-0.00312 0.02501-0.00469 0.01718-0.00469 0.03283-0.00938 0.05003-0.014048 0.03437-0.00939 0.06877-0.020336 0.10315-0.028144 0.06878-0.017184 0.14067-0.029696 0.21414-0.029696 0.0719 0 0.14538 0.012512 0.21101 0.04376 0.03283 0.015632 0.0641 0.034384 0.09222 0.056272 0.01408 0.010944 0.02814 0.02344 0.04066 0.035968 0.0062 0.00624 0.0125 0.012496 0.01875 0.018752 0.0063 0.00626 0.0125 0.014064 0.01718 0.021888 0.02034 0.031264 0.03126 0.067216 0.03595 0.10474 0.0047 0.037504 0.0047 0.073472 0.0016 0.10942-0.0063 0.071888-0.02189 0.14224-0.04222 0.21101l-0.0078 0.024992-0.0031 0.012496c0 0.00158-0.0016 0.0047 0 0.0047-0.0016-0.00158 0.0031 0.0031-0.0031-0.01096-0.0297-0.010944-0.01877 0.00314-0.02187-0.00157 0.0031-0.00626 0.0078-0.014064 0.0125-0.021872 0.0047-0.00781 0.0078-0.015632 0.0125-0.023456 0.01563-0.031248 0.0297-0.062512 0.04221-0.09536 0.0469-0.12973 0.05627-0.27197 0.03282-0.40795-0.01094-0.068784-0.03125-0.13442-0.05627-0.19851-0.02501-0.06408-0.0547-0.12661-0.08909-0.18757l-0.0125-0.021888-0.0031-0.00626-0.0016-0.00314-0.0016-0.00312c-0.0031-0.00469-0.0047-0.00938-0.0063-0.014064-0.0078-0.018752-0.01251-0.039072-0.0172-0.056272-0.0078-0.035952-0.01406-0.071904-0.01877-0.10629-0.01093-0.070336-0.02032-0.13912-0.0375-0.20634-0.01563-0.067216-0.03752-0.13286-0.0672-0.19382-0.02971-0.060976-0.06566-0.11723-0.11254-0.16725-0.09066-0.09848-0.2157-0.16413-0.34858-0.2032-0.13286-0.039072-0.27354-0.051584-0.41422-0.051584-0.13912 0-0.27979 0.017184-0.41109 0.06096-0.06565 0.021888-0.12818 0.051584-0.186 0.090656-0.05942 0.03752-0.10944 0.084416-0.14694 0.14224z"/>
  <path id="path275" fill="#895c2f" d="m32.719 5.4561c0.02344-0.03752 0.05158-0.067216 0.07971-0.095344 0.0297-0.028144 0.06096-0.051584 0.09378-0.073472 0.06565-0.04376 0.13598-0.07816 0.20946-0.10472 0.14693-0.051584 0.30166-0.071904 0.45486-0.068784 0.15163 0.00469 0.30482 0.02344 0.45173 0.076608 0.07347 0.02656 0.14379 0.06096 0.20789 0.10786 0.0641 0.045328 0.12034 0.1016 0.16725 0.16568 0.04533 0.06408 0.07971 0.13442 0.1063 0.20789 0.02499 0.073456 0.04219 0.1485 0.0547 0.22197 0.0063 0.037504 0.01094 0.073456 0.01718 0.11098 0.0063 0.035968 0.01096 0.073472 0.01718 0.1063 0.0031 0.0172 0.0078 0.032832 0.01408 0.045328l0.0016 0.00314 0.0016 0.00312 0.0031 0.00626 0.0062 0.012512 0.01408 0.025008c0.01718 0.032816 0.03438 0.067216 0.05002 0.1016 0.02968 0.068768 0.05472 0.14224 0.0719 0.21726 0.01718 0.073472 0.02499 0.15006 0.02499 0.22666-0.0016 0.1532-0.04376 0.3048-0.12349 0.43454-0.0063 0.00938-0.01875 0.014064-0.02813 0.00781-0.0094-0.00626-0.01251-0.0172-0.0094-0.025008 0.02189-0.056272 0.04534-0.10941 0.06253-0.16413 0.01875-0.054704 0.03125-0.11098 0.03125-0.16566 0-0.054704-0.01405-0.10787-0.0469-0.15006-0.0016-0.00312-0.0047-0.00624-0.0062-0.00781l-0.0031-0.00312-0.0031-0.0047c-0.0047-0.00469-0.0094-0.00936-0.01406-0.014048-0.0094-0.00939-0.02034-0.018768-0.03126-0.026576-0.02187-0.017184-0.0469-0.032816-0.07034-0.048448-0.09846-0.060976-0.2032-0.11413-0.30949-0.16726-0.1063-0.051584-0.21416-0.1016-0.32043-0.15005-0.2157-0.09848-0.43141-0.19696-0.644-0.30325-0.10629-0.054704-0.21101-0.10941-0.31418-0.17507-0.0547-0.039072-0.10472-0.073472-0.15318-0.11723-0.02344-0.021888-0.0469-0.046896-0.06566-0.081296-0.0094-0.017184-0.0172-0.037504-0.01875-0.062528 0-0.012496 0-0.024992 0.0031-0.037504 0.0016-0.00626 0.0031-0.012512 0.0063-0.018752 0.0016-0.00469 0.0063-0.014064 0.0078-0.015632h0.0031zm0.08752 0.053136c-0.0031 0.00469-0.0016 0.00312-0.0031 0.00469 0 0.00157 0 0.00157-0.0016 0.00312v0.00626c0 0.00469 0.0031 0.012512 0.0063 0.021888 0.0094 0.018768 0.02658 0.039072 0.04533 0.056272 0.03907 0.03752 0.0844 0.071904 0.13286 0.10317 0.09534 0.064096 0.19851 0.12035 0.30323 0.17662 0.20789 0.10942 0.42202 0.21102 0.63462 0.31419 0.10629 0.051584 0.21258 0.10472 0.31886 0.15787 0.10632 0.054704 0.21101 0.10941 0.31262 0.17664 0.02501 0.017184 0.05002 0.034368 0.07347 0.054704 0.0125 0.00936 0.02344 0.02032 0.03594 0.031264 0.0063 0.00624 0.01096 0.010928 0.0172 0.018736l0.0031 0.0047 0.0047 0.00469c0.0031 0.00314 0.0047 0.00624 0.0078 0.00938 0.01875 0.026576 0.03282 0.056288 0.04221 0.087536 0.0094 0.031264 0.01094 0.06408 0.01094 0.095328-0.0016 0.062528-0.01875 0.1235-0.03907 0.18131-0.02034 0.05784-0.04533 0.11101-0.06878 0.1657l-0.03752-0.018768c0.07347-0.12504 0.10786-0.26885 0.1063-0.41266-0.0031-0.14379-0.04064-0.28603-0.10162-0.41733-0.01563-0.032832-0.03126-0.065648-0.05-0.096912l-0.02816-0.050016c-0.01093-0.02032-0.01563-0.040656-0.02032-0.059392-0.0094-0.039072-0.01563-0.075024-0.02187-0.11254-0.0063-0.037504-0.01251-0.073472-0.01877-0.10786-0.01406-0.071904-0.03125-0.14067-0.05629-0.20789-0.02499-0.065648-0.05781-0.12973-0.09846-0.18445-0.04062-0.056272-0.09221-0.10472-0.14848-0.14381-0.05784-0.039072-0.12035-0.070336-0.18758-0.092224-0.13442-0.045328-0.27822-0.06096-0.42203-0.062528-0.0719 0-0.14224 0.00314-0.21258 0.015632-0.07034 0.010944-0.13912 0.028144-0.20477 0.051584s-0.12974 0.053152-0.18757 0.090656c-0.0297 0.018752-0.05627 0.039072-0.08128 0.062528-0.02501 0.02344-0.04845 0.04688-0.06565 0.071904z"/>
  <path id="path277" fill="#ba8449" d="m32.754 5.4733c-0.17195 0.26571 0.03283 1.2864 1.1129 1.1489 0.1141-0.014048 0.49392-0.21726 0.75029 0.067216 0.1391 0.1563-0.04845 0.55179 0 0.46893 0.0547-0.090656 0.26416-0.44078-0.05003-0.98005-0.10003-0.1735 0.06566-1.0066-1.016-1.0176-0.41424-0.00155-0.68309 0.13598-0.79718 0.31262"/>
  <g id="g279" transform="matrix(.016 0 0 .016 31.541 4.8965)">
   <g id="g281">
    <clipPath id="clipPath5193">
     <use id="use5195" xlink:href="#SVGID_25_" height="100%" width="100%" y="0" x="0" overflow="visible"/>
    </clipPath>
    <g id="g289" opacity=".15" clip-path="url(#SVGID_26_)">
     <g id="g291" transform="translate(307.17 461.83)">
      <path id="path293" fill="#e3ac5e" d="m-233.15-421.75c19.441-12.505 78.253-11.625 97.009 18.366 12.506 19.929-10.355 69.167-18.854 75.42-8.401 6.252-20.124 11.723-50.996 4.298-26.182-6.252 13.188-30.578-17.487-34.094-28.038-3.224-30.871-50.312-9.672-63.99"/>
     </g>
    </g>
   </g>
  </g>
  <g id="g295" transform="matrix(.016 0 0 .016 31.541 4.8965)">
   <g id="g297">
    <clipPath id="clipPath5204">
     <use id="use5206" xlink:href="#SVGID_27_" height="100%" width="100%" y="0" x="0" overflow="visible"/>
    </clipPath>
    <g id="g305" opacity=".25" clip-path="url(#SVGID_28_)">
     <g id="g307" transform="translate(391 387.17)">
      <path id="path309" fill="#e3ac5e" d="m-262.63-298.69c0 1.465-2.833 2.735-6.35 2.735s-6.35-1.171-6.35-2.735c0-1.465 2.833-2.735 6.35-2.735 3.517 0.097 6.35 1.269 6.35 2.735"/>
     </g>
    </g>
   </g>
  </g>
  <path id="path311" fill="#f8a490" d="m33.415 6.1845c0.02344-0.015632 0.1485-0.010944 0.16411 0.00626 0.01565 0.015632 0.05003 0.08128 0.01096 0.10941-0.01406 0.00938-0.01406-0.029696-0.04533-0.02344-0.0375 0.00782-0.0172 0.056272-0.0469 0.056272-0.04533-0.00155-0.0016-0.053136-0.04064-0.059392-0.0297-0.00626-0.03595 0.02344-0.05002 0.02032-0.04534-0.00938-0.02501-0.087536 0.0078-0.10942"/>
  <g id="g313" transform="matrix(.016 0 0 .016 31.541 4.8965)">
   <g id="g315">
    <clipPath id="clipPath5216">
     <use id="use5218" xlink:href="#SVGID_29_" height="100%" width="100%" y="0" x="0" overflow="visible"/>
    </clipPath>
    <g id="g323" clip-path="url(#SVGID_30_)">
     <g id="g325" transform="translate(380.22 400.41)">
      <path id="path327" fill="#f8a490" d="m-258.87-320.49c-1.856 0-3.615 0.196-4.201 0.586-2.051 1.368-3.321 6.252-0.586 6.741h0.098c0.684 0 1.075-1.368 2.54-1.368h0.489c2.442 0.391-0.196 3.712 2.54 3.712 1.758 0 0.488-2.931 2.931-3.419h0.391c1.368 0 1.563 1.562 2.15 1.562 0.097 0 0.195 0 0.293-0.097 2.539-1.759 0.391-5.862-0.685-6.838-0.489-0.488-3.322-0.879-5.96-0.879m0 0.684c2.931 0 5.178 0.391 5.568 0.684 0.586 0.586 1.759 2.735 1.563 4.298-0.098 0.586-0.293 1.075-0.685 1.368 0-0.098-0.097-0.098-0.195-0.196-0.391-0.488-0.977-1.27-2.051-1.27-0.195 0-0.391 0-0.488 0.098-1.661 0.391-1.954 1.661-2.247 2.54-0.195 0.879-0.293 0.879-0.586 0.879-0.782 0-0.782-0.196-0.782-1.075s0-2.247-1.758-2.54h-0.586c-1.075 0-1.758 0.684-2.247 1.075-0.098 0.098-0.293 0.292-0.391 0.292-0.391-0.097-0.782-0.292-0.977-1.074-0.293-1.368 0.684-3.712 1.758-4.494 0.587-0.389 1.955-0.585 4.104-0.585"/>
     </g>
    </g>
   </g>
  </g>
  <g id="g329" transform="matrix(.016 0 0 .016 31.541 4.8965)">
   <g id="g331">
    <clipPath id="clipPath5227">
     <use id="use5229" xlink:href="#SVGID_31_" height="100%" width="100%" y="0" x="0" overflow="visible"/>
    </clipPath>
    <g id="g339" opacity=".25" clip-path="url(#SVGID_32_)">
     <g id="g341" transform="translate(474.1 359.95)">
      <path id="path343" fill="#f6e8d0" d="m-291.8-253.81c2.931 18.756-20.516 42.3-52.071 47.184-31.555 4.788-54.806-23.348-57.736-42.202-2.931-18.757 16.413-11.626 47.967-16.413 31.555-4.786 58.909-7.326 61.84 11.431"/>
     </g>
    </g>
   </g>
  </g>
  <g id="g345" transform="matrix(.016 0 0 .016 31.541 4.8965)">
   <g id="g347">
    <clipPath id="clipPath5238">
     <use id="use5240" xlink:href="#SVGID_33_" height="100%" width="100%" y="0" x="0" overflow="visible"/>
    </clipPath>
    <g id="g355" opacity=".5" clip-path="url(#SVGID_34_)">
     <g id="g357" transform="translate(347.21 315.98)">
      <path id="path359" fill="#d7cab2" d="m-247.26-181.28c-0.879-1.367-1.368-3.028-1.856-4.592-0.488-1.562-0.977-3.125-1.465-4.689-0.977-3.126-2.052-6.251-3.517-9.182s-3.321-5.667-5.666-7.718-5.178-3.419-8.206-4.005c-1.075-0.391-1.563-1.465-1.173-2.442 0.391-0.977 1.368-1.465 2.248-1.271 7.034 1.661 14.36 2.442 21.59 2.541 7.229 0.097 14.654-0.293 21.981-1.173 7.327-0.879 14.557-2.149 21.688-3.81 7.132-1.66 14.264-3.614 21.2-5.959 1.074-0.391 2.149 0.195 2.442 1.172 0.293 0.781 0 1.562-0.587 2.051-0.194 0.195-0.586 0.488-0.879 0.781-0.293 0.294-0.587 0.684-0.88 0.977-0.585 0.684-1.172 1.465-1.758 2.248-1.173 1.562-2.247 3.125-3.224 4.787-2.149 3.224-4.104 6.545-5.96 9.965-1.855 3.419-3.712 6.838-5.373 10.257-0.879 1.759-1.66 3.517-2.344 5.276-0.392 0.879-0.685 1.758-1.075 2.735-0.195 0.488-0.293 0.878-0.391 1.367v0.195c0 0.097 0 0.098-0.099 0.195 0 0.098-0.097 0.195-0.194 0.195-0.098 0.098-0.195 0.196-0.391 0.293-0.196 0.196-0.489 0.293-0.685 0.392-1.855 0.781-3.81 1.172-5.666 1.562-1.856 0.392-3.811 0.685-5.764 0.88-3.908 0.488-7.718 0.879-11.625 0.977-3.908 0.194-7.815 0.194-11.625-0.195-1.954-0.195-3.908-0.488-5.764-0.977-0.977-0.293-1.856-0.587-2.735-1.075-0.879-0.39-1.66-0.977-2.247-1.758m0.098-0.097c0.489 0.781 1.368 1.367 2.248 1.759 0.879 0.391 1.758 0.684 2.735 0.977 1.856 0.488 3.81 0.781 5.764 0.88 3.908 0.293 7.718 0.293 11.625 0.098 3.908-0.196 7.718-0.685 11.528-1.173 1.856-0.293 3.81-0.586 5.667-1.074 1.855-0.488 3.809-0.88 5.47-1.661 0.196-0.098 0.392-0.195 0.586-0.391 0.195-0.098 0.294-0.195 0.294-0.293 0.098-0.489 0.194-0.978 0.391-1.466 0.292-0.977 0.586-1.855 0.879-2.832 0.685-1.857 1.367-3.615 2.149-5.472 1.563-3.615 3.126-7.131 4.787-10.648 1.66-3.518 3.419-7.034 5.275-10.454 0.879-1.758 1.855-3.419 2.931-5.177 0.488-0.88 1.074-1.759 1.661-2.541 0.293-0.39 0.586-0.878 0.879-1.27 0.39-0.391 0.684-0.88 1.172-1.27l1.856 3.321c-7.132 2.442-14.264 4.396-21.59 6.057-7.327 1.661-14.654 3.029-22.079 3.908-7.424 0.879-14.947 1.368-22.47 1.172-7.522-0.196-15.044-1.074-22.469-2.833l1.075-3.908c3.224 1.954 6.155 3.811 8.402 6.448 2.247 2.638 3.81 5.666 5.08 8.792 1.172 3.126 2.149 6.35 2.931 9.477 0.391 1.562 0.879 3.224 1.27 4.786 0.586 1.857 1.074 3.419 1.953 4.788"/>
     </g>
    </g>
   </g>
  </g>
  <g id="g361" transform="matrix(.016 0 0 .016 31.541 4.8965)">
   <g id="g363">
    <clipPath id="clipPath5249">
     <use id="use5251" xlink:href="#SVGID_35_" height="100%" width="100%" y="0" x="0" overflow="visible"/>
    </clipPath>
    <g id="g371" opacity=".5" clip-path="url(#SVGID_36_)">
     <g id="g373" transform="translate(347.23 315.99)">
      <path id="path375" fill="#d7cab2" d="m-247.26-181.28c-0.879-1.367-1.367-2.931-1.856-4.494-0.488-1.563-0.879-3.126-1.368-4.688-0.977-3.127-1.954-6.253-3.419-9.281-1.368-2.931-3.224-5.667-5.471-7.815-2.344-2.248-5.177-3.81-8.206-4.494v-0.098c-0.488-0.195-0.781-0.781-0.586-1.27 0.196-0.489 0.684-0.782 1.173-0.684 7.131 1.661 14.458 2.442 21.883 2.54s14.752-0.293 22.079-1.172c7.326-0.879 14.556-2.247 21.786-3.81 7.229-1.661 14.359-3.615 21.297-5.96 0.488-0.194 1.074 0.098 1.27 0.587 0.098 0.39 0 0.781-0.293 1.074-0.587 0.488-1.27 1.27-1.856 1.954s-1.173 1.564-1.759 2.247c-1.074 1.563-2.149 3.225-3.126 4.885-2.051 3.225-4.005 6.644-5.861 10.063-1.855 3.419-3.615 6.838-5.178 10.355-0.781 1.759-1.562 3.517-2.345 5.275-0.391 0.879-0.684 1.759-0.978 2.735-0.194 0.489-0.293 0.879-0.39 1.367-0.099 0.392-0.392 0.488-0.587 0.685-0.194 0.195-0.488 0.293-0.684 0.391-1.856 0.781-3.81 1.173-5.667 1.563-1.855 0.391-3.809 0.684-5.763 0.977-3.811 0.488-7.719 0.88-11.626 1.075-3.908 0.194-7.815 0.194-11.625-0.195-1.954-0.196-3.908-0.489-5.764-0.978-0.977-0.293-1.856-0.587-2.735-0.977-0.977-0.489-1.856-1.076-2.345-1.857m0-0.097c0.489 0.781 1.368 1.367 2.248 1.855 0.879 0.392 1.758 0.685 2.735 0.978 1.856 0.488 3.81 0.782 5.764 0.879 3.908 0.392 7.718 0.293 11.625 0.098 3.908-0.194 7.718-0.586 11.625-1.172 1.856-0.294 3.811-0.586 5.765-1.075 1.856-0.39 3.811-0.878 5.47-1.661 0.196-0.097 0.392-0.194 0.587-0.39 0.196-0.099 0.391-0.293 0.391-0.392 0.098-0.488 0.195-0.977 0.391-1.465 0.293-0.978 0.586-1.855 0.978-2.735 0.684-1.856 1.465-3.615 2.246-5.373 1.564-3.615 3.225-7.034 4.983-10.551 1.758-3.518 3.517-6.937 5.471-10.356 0.977-1.758 1.953-3.419 3.027-4.982 0.489-0.88 1.075-1.661 1.661-2.442 0.587-0.781 1.173-1.563 2.053-2.345l0.977 1.759c-7.034 2.442-14.264 4.396-21.492 6.056-7.229 1.661-14.557 2.931-21.981 3.908-7.425 0.88-14.849 1.368-22.372 1.173-7.425-0.196-14.947-0.977-22.273-2.638l0.488-1.855c3.224 1.27 6.154 3.224 8.401 5.763 2.247 2.541 3.908 5.472 5.178 8.5 1.27 3.029 2.247 6.155 3.126 9.379 0.391 1.562 0.88 3.125 1.368 4.786 0.193 1.367 0.681 2.929 1.56 4.298"/>
     </g>
    </g>
   </g>
  </g>
  <path id="path377" fill="#333" d="m33.141 7.0505c0.07971 0.12504 0.73154 0.039072 0.74246-0.01096 0.02814-0.12659 0.26261-0.57365 0.33763-0.63618-0.13443 0.046896-0.83312 0.2704-1.4005 0.13443 0.25478 0.085968 0.2579 0.41578 0.32043 0.5127"/>
  <g id="g379" transform="matrix(.016 0 0 .016 31.541 4.8965)">
   <g id="g381">
    <clipPath id="clipPath5261">
     <use id="use5263" xlink:href="#SVGID_37_" height="100%" width="100%" y="0" x="0" overflow="visible"/>
    </clipPath>
    <g id="g389" clip-path="url(#SVGID_38_)">
     <g id="g391" transform="translate(451.25,378.25)">
      <path id="path393" fill="#333" d="m-283.85-283.93c-6.546 2.247-34.095 11.137-62.621 11.137-8.402 0-16.803-0.781-24.912-2.637 16.021 5.178 16.216 25.889 20.125 31.945 1.856 2.931 8.988 4.006 17.096 4.006 13.091 0 28.82-2.734 29.308-4.688 1.758-8.012 16.315-35.954 21.004-39.763m-5.471 3.809c-6.35 9.575-15.533 28.038-17.389 34.975-2.442 1.367-15.046 3.713-27.453 3.713-9.964 0-14.458-1.661-15.436-3.127-0.977-1.465-1.758-4.2-2.54-7.327-1.661-5.958-4.005-14.165-9.574-19.831 4.885 0.586 9.964 0.878 15.337 0.878 23.253-0.097 46.016-5.958 57.055-9.281"/>
     </g>
    </g>
   </g>
  </g>
  <path id="path395" fill="#fdd5c4" d="m33.408 7.1161c-0.13442 0-0.22197-0.018768-0.25635-0.056288-0.0031-0.00314-0.0031-0.021872 0.01251-0.05784 0.03752-0.085968 0.15318-0.2329 0.35326-0.24539 0.01406 0 0.02656-0.00157 0.03907-0.00157 0.23446 0 0.37514 0.1188 0.37514 0.13912-0.0031 0.00626-0.0063 0.015632-0.01094 0.028144-0.0125 0.029696-0.03126 0.076592-0.04845 0.12659-0.02032 0.02032-0.2548 0.067232-0.46424 0.067232"/>
  <path id="path397" fill="#f8a490" d="m33.557 6.7472c-0.01406 0-0.02658 0-0.04064 0.00157-0.27354 0.017184-0.40014 0.2876-0.37202 0.32043 0.04064 0.04376 0.14536 0.059408 0.26416 0.059408 0.21102 0 0.46581-0.048464 0.47362-0.07192 0.02344-0.070336 0.05002-0.12816 0.06098-0.1563 0.0094-0.028128-0.1485-0.15474-0.3861-0.15318m0 0.02032c0.20946 0 0.35013 0.10003 0.36421 0.12974-0.0031 0.00626-0.0063 0.014064-0.0094 0.023456-0.01251 0.02968-0.03126 0.073456-0.04846 0.12347-0.03282 0.018768-0.25165 0.060976-0.45485 0.060976-0.12661 0-0.21414-0.018768-0.24698-0.051584-0.0016-0.010944 0.0094-0.054704 0.04845-0.10942 0.03438-0.050016 0.13443-0.16725 0.30794-0.17664h0.03907"/>
  <g id="g399" transform="matrix(.016 0 0 .016 31.541 4.8965)">
   <g id="g401">
    <clipPath id="clipPath5274">
     <use id="use5276" xlink:href="#SVGID_39_" height="100%" width="100%" y="0" x="0" overflow="visible"/>
    </clipPath>
    <g id="g409" clip-path="url(#SVGID_40_)">
     <g id="g411" transform="translate(348.08 315.92)">
      <path id="path413" fill="#fdd5c4" d="m-247.57-181.18c-1.172 5.276 31.165-20.613 48.554-8.206 3.615-4.786-15.631-12.895-26.866-11.039-9.476 1.66-19.245 7.719-21.688 19.245"/>
     </g>
    </g>
   </g>
  </g>
  <path id="path415" fill="#fef6e4" d="m33.254 6.6065c0.02658 0.046896 0.07502 0.27512 0.09534 0.27981s0.1485 0.040624 0.16568 0.032816c0.01875-0.00781 0.0172-0.051584 0.03595-0.039072 0.01563 0.01096 0.02344 0.031264 0.03909 0.023456 0.02813-0.014064 0.11099-0.065664 0.12504-0.087536 0.0125-0.02344 0.01094-0.15318 0-0.25635-0.05312 0.025008-0.36731 0.057824-0.4611 0.04688"/>
  <g id="g417" transform="matrix(.016 0 0 .016 31.541 4.8965)">
   <g id="g419">
    <clipPath id="clipPath5286">
     <use id="use5288" xlink:href="#SVGID_41_" height="100%" width="100%" y="0" x="0" overflow="visible"/>
    </clipPath>
    <g id="g427" clip-path="url(#SVGID_42_)">
     <g id="g429" transform="translate(402.75,363.25)">
      <path id="path431" fill="#ffdc99" d="m-266.81-259.26c-2.931 1.271-18.268 3.029-25.985 3.029-1.173 0-2.052 0-2.833-0.098 1.66 2.931 4.689 17.195 5.959 17.488 1.172 0.293 7.815 2.149 9.867 2.149 0.196 0 0.391 0 0.489-0.099 0.977-0.39 1.075-2.54 1.856-2.54 0.097 0 0.293 0 0.39 0.196 0.879 0.488 1.271 1.562 2.052 1.562 0.098 0 0.293 0 0.39-0.098 1.76-0.879 6.938-4.103 7.815-5.471 0.88-1.464 0.685-9.572 0-16.118m-0.488 0.88c0.587 6.643 0.587 13.677 0 14.85-0.683 1.173-5.373 4.2-7.521 5.275h-0.098c-0.196 0-0.489-0.293-0.685-0.586-0.293-0.293-0.586-0.586-0.977-0.88-0.293-0.194-0.489-0.293-0.782-0.293-0.879 0-1.172 0.88-1.465 1.563-0.195 0.391-0.391 0.978-0.684 1.074h-0.293c-1.66 0-6.643-1.368-8.694-1.856-0.391-0.098-0.684-0.194-0.879-0.194-0.586-0.685-1.856-5.276-2.833-8.598-0.879-3.028-1.661-5.861-2.344-7.521h1.856c7.326-0.001 21.003-1.564 25.399-2.834"/>
     </g>
    </g>
   </g>
  </g>
  <g id="g433" transform="matrix(.016 0 0 .016 31.541 4.8965)">
   <g id="g435">
    <clipPath id="clipPath5297">
     <use id="use5299" xlink:href="#SVGID_43_" height="100%" width="100%" y="0" x="0" overflow="visible"/>
    </clipPath>
    <g id="g443" clip-path="url(#SVGID_44_)">
     <g id="g445" transform="translate(361.75 348.25)">
      <path id="path447" fill="#eadcbe" d="m-252.38-234.49c-0.488-5.275 23.837-7.033 26.865-6.544 0-1.271-0.194-2.052-0.194-3.518-4.005 2.052-25.889 4.201-28.819 3.322 0.292 0.586 1.367 3.517 2.148 6.74"/>
     </g>
    </g>
   </g>
  </g>
  <g id="g449" transform="matrix(.016 0 0 .016 31.541 4.8965)">
   <g id="g451">
    <clipPath id="clipPath5308">
     <use id="use5310" xlink:href="#SVGID_45_" height="100%" width="100%" y="0" x="0" overflow="visible"/>
    </clipPath>
    <g id="g459" clip-path="url(#SVGID_46_)">
     <g id="g461" transform="translate(380.46 354.37)">
      <path id="path463" fill="#ffdc99" d="m-258.97-244.59c0.488 1.173 0.977 2.248 1.368 3.419 0.391 1.173 0.781 2.345 1.172 3.518l1.074 3.518 1.075 3.517-1.661 0.488-0.782-3.615-0.879-3.614c-0.293-1.172-0.586-2.345-0.879-3.517-0.391-1.173-0.684-2.345-1.075-3.419l0.587-0.295z"/>
     </g>
    </g>
   </g>
  </g>
  <g id="g465" transform="matrix(.016 0 0 .016 31.541 4.8965)">
   <g id="g467">
    <clipPath id="clipPath5319">
     <use id="use5321" xlink:href="#SVGID_47_" height="100%" width="100%" y="0" x="0" overflow="visible"/>
    </clipPath>
    <g id="g475" opacity=".4" clip-path="url(#SVGID_48_)">
     <g id="g477" transform="translate(253.58 481.92)">
      <path id="path479" fill="#fdd5c4" d="m-214.33-454.84c12.896 3.322 10.844 25.596 18.465 27.354 7.717 1.758 17.78-18.367 18.757-22.763-14.849-6.35-21.786-13.774-32.434-11.625-3.517 0.684-8.402 6.057-4.788 7.034"/>
     </g>
    </g>
   </g>
  </g>
  <g id="g481" transform="matrix(.016 0 0 .016 31.541 4.8965)">
   <g id="g483">
    <clipPath id="clipPath5330">
     <use id="use5332" xlink:href="#SVGID_49_" height="100%" width="100%" y="0" x="0" overflow="visible"/>
    </clipPath>
    <g id="g491" opacity=".5" clip-path="url(#SVGID_50_)">
     <g id="g493" transform="translate(308.67 381.33)">
      <path id="path495" fill="#e3ac5e" d="m-233.67-289.08c16.217 1.27 29.602 1.954 34.388-3.028 4.787-4.982 6.546-27.061 14.361-26.475 6.643 0.489 8.889 29.211 13.188 29.992 4.3 0.878 34.682 9.183 42.302 1.367 7.522-7.815 11.039-12.7 9.28-17.389-1.758-4.69-46.208-19.832-55.295-20.711-9.084-0.879-70.436 6.839-71.999 10.648-1.563 3.908-3.224 3.322-2.931 7.425 0.586 7.914 0.489 16.902 16.706 18.171"/>
     </g>
    </g>
   </g>
  </g>
  <path id="path497" fill="#333" d="m33.468 5.85c0.01875 0 0.09222-0.00626 0.10942 0.00781 0.09378 0.073472 0.09066 0.37515 0.18912 0.46894 0.08754 0.0844 0.56584 0.14536 0.64867 0.05 0.08286-0.095344 0.20478-0.38608 0.23291-0.40797 0.02814-0.02032 0.09066-0.035952 0.10942-0.065664 0.01877-0.028128 0.0031-0.1563-0.04064-0.15005-0.04376 0.00626-0.12661 0.032816-0.17819 0.018752-0.05158-0.015632-0.30325-0.1735-0.9363-0.07816-0.06096 0.00938-0.12192 0-0.16413-0.010944s-0.27979-0.1485-0.91597-0.05784c-0.06253 0.00938-0.15005-0.018752-0.18133-0.015632-0.03126 0.00312-0.04064 0.1016-0.02813 0.12661 0.0125 0.025008 0.07816 0.046896 0.08597 0.07816 0.0078 0.031264 0.06565 0.33763 0.2157 0.46424 0.15944 0.13443 0.56584 0.04064 0.60179 0.015632 0.16102-0.11408 0.19696-0.44389 0.25168-0.44389"/>
  <g id="g499" transform="matrix(.016 0 0 .016 31.541 4.8965)">
   <g id="g501">
    <clipPath id="clipPath5342">
     <use id="use5344" xlink:href="#SVGID_51_" height="100%" width="100%" y="0" x="0" overflow="visible"/>
    </clipPath>
    <g id="g509" clip-path="url(#SVGID_52_)">
     <g id="g511" transform="translate(326.04 456.22)">
      <path id="path513" fill="#1a1a1a" d="m-239.84-412.53c-6.936 0-15.24 0.488-25.009 1.954-0.586 0.098-1.172 0.098-1.758 0.098-3.419 0-7.425-1.075-9.281-1.075h-0.293c-1.954 0.195-2.54 6.35-1.759 7.913 0.782 1.661 4.885 2.931 5.373 4.885s4.103 21.102 13.482 29.015c3.908 3.321 10.355 4.396 16.803 4.396 9.77 0 19.441-2.443 20.809-3.42 10.16-7.229 12.504-27.842 15.924-27.842 0.488 0 1.758-0.098 2.931-0.098 1.563 0 3.224 0.098 3.81 0.488 5.861 4.591 5.667 23.446 11.821 29.308 3.518 3.321 16.998 6.154 27.55 6.154 5.959 0 11.039-0.879 12.895-3.028 5.179-5.959 12.799-24.13 14.557-25.498 1.76-1.368 5.667-2.247 6.839-4.103 1.074-1.759 0.195-9.378-2.442-9.378h-0.194c-2.15 0.292-5.862 1.367-8.891 1.367-0.781 0-1.564-0.098-2.247-0.292-2.54-0.782-12.407-6.741-34.877-6.741-6.74 0-14.556 0.488-23.642 1.856-1.074 0.195-2.247 0.195-3.224 0.195-2.638 0-5.081-0.391-6.937-0.879-1.955-0.195-10.943-5.275-32.24-5.275m0 1.954c17.683 0 26.768 3.517 30.09 4.885 0.684 0.293 1.172 0.489 1.661 0.586 1.759 0.391 4.396 0.977 7.425 0.977 1.173 0 2.442-0.098 3.518-0.293 8.304-1.271 16.119-1.856 23.348-1.856 18.562 0 28.233 4.103 32.435 5.959 0.88 0.391 1.466 0.586 1.954 0.782 0.879 0.292 1.758 0.391 2.833 0.391 2.148 0 4.494-0.489 6.447-0.879 0.88-0.195 1.759-0.391 2.442-0.488 0.88 0.977 1.466 5.275 0.978 6.447-0.392 0.586-2.052 1.368-3.225 1.856-1.172 0.489-2.246 0.977-3.028 1.563-1.074 0.782-2.148 2.833-5.276 9.085-3.027 5.959-6.74 13.384-9.572 16.608-0.977 1.172-4.494 2.344-11.528 2.344-10.258 0-23.35-2.734-26.28-5.568-2.734-2.54-4.103-8.499-5.471-14.263-1.562-6.447-3.027-12.504-6.447-15.24-0.879-0.684-2.247-0.977-4.982-0.977h-2.149-0.879c-2.735 0-3.908 3.224-5.959 9.085-2.247 6.448-5.471 15.142-11.039 19.148-1.271 0.781-10.454 3.126-19.734 3.126-7.131 0-12.504-1.368-15.533-3.908-3.712-3.126-8.891-10.453-12.603-27.159-0.098-0.391-0.196-0.684-0.196-0.879-0.488-1.856-2.247-2.931-3.712-3.908-0.586-0.391-1.563-1.075-1.759-1.367-0.391-0.879 0-4.104 0.586-5.178 0.684 0 1.661 0.196 2.735 0.391 1.856 0.293 4.201 0.684 6.35 0.684 0.684 0 1.465 0 2.051-0.195 8.693-1.075 16.997-1.759 24.519-1.759"/>
     </g>
    </g>
   </g>
  </g>
  <g id="g515" transform="matrix(.016 0 0 .016 31.541 4.8965)">
   <g id="g517">
    <clipPath id="clipPath5353">
     <use id="use5355" xlink:href="#SVGID_53_" height="100%" width="100%" y="0" x="0" overflow="visible"/>
    </clipPath>
    <g id="g525" opacity=".5" clip-path="url(#SVGID_54_)">
     <g id="g527" transform="translate(292.5,434.75)">
      <path id="path529" d="m-228.02-377.06c-0.88 1.172-1.465 18.464 5.861 23.153 4.787 3.126 25.107 2.442 29.21 0.196 6.35-3.615 12.602-20.027 10.844-22.372-2.931-3.908-24.032-9.086-39.859-4.982-1.954 0.39-4.982 2.54-6.056 4.005z" stroke="#333" stroke-miterlimit="10" stroke-width="3.9077" fill="none"/>
     </g>
    </g>
   </g>
  </g>
  <path id="path531" fill="#fff" d="m32.572 5.8187c-0.01408 0.018768-0.02344 0.29542 0.09378 0.37046 0.07659 0.050016 0.40171 0.039072 0.46736 0.00312 0.1016-0.057824 0.20163-0.32043 0.1735-0.35795-0.0469-0.062528-0.38451-0.14536-0.63774-0.079712-0.03126 0.00781-0.07971 0.040624-0.0969 0.06408"/>
  <g id="g533" transform="matrix(.016 0 0 .016 31.541 4.8965)">
   <g id="g535">
    <clipPath id="clipPath5365">
     <use id="use5367" xlink:href="#SVGID_55_" height="100%" width="100%" y="0" x="0" overflow="visible"/>
    </clipPath>
    <g id="g543" opacity=".5" clip-path="url(#SVGID_56_)">
     <g id="g545" transform="translate(476.59 423.06)">
      <path id="path547" d="m-292.74-357.84c0.781 1.27-0.977 18.464-8.792 22.274-5.178 2.442-25.205-0.879-28.917-3.615-5.861-4.396-9.965-21.492-7.914-23.642 3.419-3.517 25.01-5.862 40.152 0.195 1.856 0.685 4.592 3.225 5.471 4.788z" stroke="#333" stroke-miterlimit="10" stroke-width="3.9077" fill="none"/>
     </g>
    </g>
   </g>
  </g>
  <path id="path549" fill="#fff" d="m34.482 5.9407c0.0125 0.02032-0.01565 0.29542-0.14069 0.35638-0.08285 0.039072-0.40328-0.014064-0.46267-0.05784-0.09379-0.070336-0.15944-0.34389-0.12661-0.37827 0.0547-0.056272 0.40014-0.093792 0.64242 0.00312 0.02971 0.01096 0.0719 0.050032 0.08755 0.076608"/>
  <path id="path551" fill="#010101" d="m32.943 5.9876c-0.0078 0.06096-0.03907 0.10629-0.06877 0.1016s-0.04533-0.056272-0.03752-0.11723c0.0078-0.06096 0.03907-0.10629 0.06878-0.1016 0.0297 0.00469 0.04533 0.056256 0.0375 0.11723"/>
  <path id="path553" fill="#010101" d="m34.188 6.0563c0.0063 0.06096-0.0125 0.11254-0.04064 0.11566-0.0297 0.00312-0.05782-0.04376-0.06408-0.10474-0.0063-0.06096 0.0125-0.11254 0.04064-0.11566 0.02813-0.00155 0.05626 0.045344 0.06408 0.10474"/>
  <g id="g555" transform="matrix(.016 0 0 .016 31.541 4.8965)">
   <g id="g557">
    <clipPath id="clipPath5379">
     <use id="use5381" xlink:href="#SVGID_57_" height="100%" width="100%" y="0" x="0" overflow="visible"/>
    </clipPath>
    <g id="g565" opacity=".3" clip-path="url(#SVGID_58_)">
     <g id="g567" transform="translate(270.38 446.25)">
      <path id="path569" fill="#333" d="m-220.28-396.08c2.247 1.465 4.298 0.586 4.787 3.517s7.229 28.331 15.631 31.262c13.775 4.787 31.164 0.098 33.509-1.368s13.384-26.182 15.24-27.159 7.717 0.098 8.988 0.684c3.81 1.661 10.844 28.429 12.699 29.796 8.5 5.959 35.757 5.471 37.026 3.908 1.368-1.661 11.527-25.009 13.384-26.377 2.639-2.052 8.793-3.419 8.988-2.54 0.194 0.879-4.982 1.758-6.546 3.615-1.563 1.954-11.821 24.325-15.045 26.279s-27.061 5.179-39.175-3.321c-5.764-4.104-8.011-28.429-12.603-29.796-2.931-0.88-5.177-0.782-7.327-0.196-2.833 1.856-6.839 22.567-15.338 27.745-3.419 2.051-29.894 7.229-37.807-1.075-14.752-15.436-10.258-29.21-15.045-31.164-3.224-1.368-3.908-3.126-3.908-4.298 0.295-1.271 1.369-0.294 2.542 0.488"/>
     </g>
    </g>
   </g>
  </g>
  <g id="g571" transform="matrix(.016 0 0 .016 31.541 4.8965)">
   <g id="g573">
    <clipPath id="clipPath5390">
     <use id="use5392" xlink:href="#SVGID_59_" height="100%" width="100%" y="0" x="0" overflow="visible"/>
    </clipPath>
    <g id="g581" opacity=".3" clip-path="url(#SVGID_60_)">
     <g id="g583" transform="translate(270.75,454.25)">
      <path id="path585" fill="#333" d="m-220.39-409.26c-1.563-0.586 6.643 2.833 9.671 2.638s8.109-2.345 9.769-2.833c1.466-0.489-7.62 1.172-9.867 1.075-2.246-0.099-8.694-0.587-9.573-0.88"/>
     </g>
    </g>
   </g>
  </g>
  <g id="g587" transform="matrix(.016 0 0 .016 31.541 4.8965)">
   <g id="g589">
    <clipPath id="clipPath5401">
     <use id="use5403" xlink:href="#SVGID_61_" height="100%" width="100%" y="0" x="0" overflow="visible"/>
    </clipPath>
    <g id="g597" opacity=".3" clip-path="url(#SVGID_62_)">
     <g id="g599" transform="translate(368.5,447.25)">
      <path id="path601" fill="#333" d="m-254.78-397.67c2.833 1.271 4.103 4.494 6.838 4.787s6.057 0.782 7.62-0.098c1.562-0.879 5.471-2.931 6.545-3.126 1.173-0.196-8.499 1.27-12.113 0.977-3.615-0.39-7.815-2.442-8.89-2.54"/>
     </g>
    </g>
   </g>
  </g>
  <g id="g603" transform="matrix(.016 0 0 .016 31.541 4.8965)">
   <g id="g605">
    <clipPath id="clipPath5412">
     <use id="use5414" xlink:href="#SVGID_63_" height="100%" width="100%" y="0" x="0" overflow="visible"/>
    </clipPath>
    <g id="g613" opacity=".3" clip-path="url(#SVGID_64_)">
     <g id="g615" transform="translate(475.38 441.38)">
      <path id="path617" fill="#333" d="m-292.32-388.06c-1.172-0.489 4.298 3.908 5.959 3.712 1.661-0.195 4.592-2.052 5.861-2.54 0.978-0.391-3.907 0.977-5.373 0.684-1.464-0.098-5.274-1.367-6.447-1.856"/>
     </g>
    </g>
   </g>
  </g>
  <g id="g619" transform="matrix(.016 0 0 .016 31.541 4.8965)">
   <g id="g621">
    <clipPath id="clipPath5423">
     <use id="use5425" xlink:href="#SVGID_65_" height="100%" width="100%" y="0" x="0" overflow="visible"/>
    </clipPath>
    <g id="g629" opacity=".3" clip-path="url(#SVGID_66_)">
     <g id="g631" transform="translate(287.75 438.62)">
      <path id="path633" fill="#333" d="m-226.35-383.5c7.229-7.132 24.423-4.689 27.549-4.103-20.613 1.465-21.004 3.028-24.619 6.643-0.488 2.833-1.172 12.212 2.052 20.418-3.614-1.955-7.424-20.516-4.982-22.958"/>
     </g>
    </g>
   </g>
  </g>
  <g id="g635" transform="matrix(.016 0 0 .016 31.541 4.8965)">
   <g id="g637">
    <clipPath id="clipPath5434">
     <use id="use5436" xlink:href="#SVGID_67_" height="100%" width="100%" y="0" x="0" overflow="visible"/>
    </clipPath>
    <g id="g645" opacity=".3" clip-path="url(#SVGID_68_)">
     <g id="g647" transform="translate(482.66 426.8)">
      <path id="path649" fill="#333" d="m-294.84-363.98c-6.252-8.01-23.544-7.913-26.768-7.62 20.222 4.201 20.417 5.764 23.544 9.867 0.195 2.833-0.392 12.211-4.592 19.929 3.712-1.563 9.867-19.538 7.816-22.176"/>
     </g>
    </g>
   </g>
  </g>
  <g id="g651" transform="matrix(.016 0 0 .016 31.541 4.8965)">
   <g id="g653">
    <clipPath id="clipPath5445">
     <use id="use5447" xlink:href="#SVGID_69_" height="100%" width="100%" y="0" x="0" overflow="visible"/>
    </clipPath>
    <g id="g661" clip-path="url(#SVGID_70_)">
     <g id="g663" transform="translate(292.81 416.38)">
      <path id="path665" fill="#d0dddc" d="m-228.13-346.84c0.684-8.401 1.465-15.24 18.171-15.729 13.384-0.391 24.032 2.735 25.498 5.959 0.977 2.051 0.196 11.039-6.447 19.245 4.298-3.81 11.137-18.952 8.206-20.809-10.844-6.936-32.435-7.132-40.445-4.298-1.465 0.489-3.811 2.149-5.373 3.908-0.294 2.15-0.294 10.552 0.39 11.724"/>
     </g>
    </g>
   </g>
  </g>
  <g id="g667" transform="matrix(.016 0 0 .016 31.541 4.8965)">
   <g id="g669">
    <clipPath id="clipPath5456">
     <use id="use5458" xlink:href="#SVGID_71_" height="100%" width="100%" y="0" x="0" overflow="visible"/>
    </clipPath>
    <g id="g677" clip-path="url(#SVGID_72_)">
     <g id="g679" transform="translate(293.58 415.5)">
      <path id="path681" fill="#d0dddc" d="m-228.44-345.36c2.54 16.412 32.532 11.43 34.29 10.746-0.098 0.879-15.729 5.275-28.819 0.195-5.276-1.954-5.667-12.797-5.471-10.941"/>
     </g>
    </g>
   </g>
  </g>
  <g id="g683" transform="matrix(.016 0 0 .016 31.541 4.8965)">
   <g id="g685">
    <clipPath id="clipPath5467">
     <use id="use5469" xlink:href="#SVGID_73_" height="100%" width="100%" y="0" x="0" overflow="visible"/>
    </clipPath>
    <g id="g693" clip-path="url(#SVGID_74_)">
     <g id="g695" transform="translate(474.46 405.09)">
      <path id="path697" fill="#d0dddc" d="m-292.01-328.22c0.391-8.5 0.391-15.24-16.022-17.78-13.188-2.051-24.129-0.293-26.083 2.736-1.173 1.856-1.563 10.941 4.103 19.929-3.81-4.396-8.793-20.125-5.568-21.688 11.625-5.568 33.118-3.126 40.641 0.684 1.368 0.684 3.614 2.54 4.885 4.592-0.1 2.051-1.076 10.452-1.956 11.527"/>
     </g>
    </g>
   </g>
  </g>
  <g id="g699" transform="matrix(.016 0 0 .016 31.541 4.8965)">
   <g id="g701">
    <clipPath id="clipPath5478">
     <use id="use5480" xlink:href="#SVGID_75_" height="100%" width="100%" y="0" x="0" overflow="visible"/>
    </clipPath>
    <g id="g709" clip-path="url(#SVGID_76_)">
     <g id="g711" transform="translate(473.58 404.31)">
      <path id="path713" fill="#d0dddc" d="m-291.7-326.93c-4.493 15.924-33.704 7.327-35.363 6.448 0 0.879 14.945 7.132 28.622 3.81 5.472-1.368 7.327-12.115 6.741-10.258"/>
     </g>
    </g>
   </g>
  </g>
  <g id="g715" transform="matrix(.016 0 0 .016 31.541 4.8965)">
   <g id="g717">
    <clipPath id="clipPath5489">
     <use id="use5491" xlink:href="#SVGID_77_" height="100%" width="100%" y="0" x="0" overflow="visible"/>
    </clipPath>
    <g id="g725" opacity=".25" clip-path="url(#SVGID_78_)">
     <g id="g727" transform="translate(327.38 426)">
      <path id="path729" fill="#fff" d="m-240.26-362.7c0-0.488-0.391-0.977-0.977-0.977s-0.977 0.391-0.977 0.977 0.391 0.977 0.977 0.977 0.977-0.391 0.977-0.977"/>
     </g>
    </g>
   </g>
  </g>
  <g id="g731" transform="matrix(.016 0 0 .016 31.541 4.8965)">
   <g id="g733">
    <clipPath id="clipPath5500">
     <use id="use5502" xlink:href="#SVGID_79_" height="100%" width="100%" y="0" x="0" overflow="visible"/>
    </clipPath>
    <g id="g741" opacity=".25" clip-path="url(#SVGID_80_)">
     <g id="g743" transform="translate(446.38 419)">
      <path id="path745" fill="#fff" d="m-282.08-351.1c0-0.488-0.392-0.977-0.978-0.977-0.488 0-0.977 0.391-0.977 0.977s0.392 0.977 0.977 0.977c0.49 0.001 0.978-0.488 0.978-0.977"/>
     </g>
    </g>
   </g>
  </g>
  <g id="g747" transform="matrix(.016 0 0 .016 31.541 4.8965)">
   <g id="g749">
    <clipPath id="clipPath5511">
     <use id="use5513" xlink:href="#SVGID_81_" height="100%" width="100%" y="0" x="0" overflow="visible"/>
    </clipPath>
    <g id="g757" opacity=".1" clip-path="url(#SVGID_82_)">
     <g id="g759" transform="translate(271.12 447.88)">
      <path id="path761" fill="#d0dddc" d="m-220.5-398.76c2.344 2.638 3.81 2.931 6.936 2.54 30.383-3.908 47.186-3.81 55.49 3.908 1.759 1.661 0.782-4.982-2.54-5.862-25.596-6.741-44.157-0.684-48.065-0.195-4.005 0.586-6.838-0.293-11.821-0.391"/>
     </g>
    </g>
   </g>
  </g>
  <g id="g763" transform="matrix(.016 0 0 .016 31.541 4.8965)">
   <g id="g765">
    <clipPath id="clipPath5522">
     <use id="use5524" xlink:href="#SVGID_83_" height="100%" width="100%" y="0" x="0" overflow="visible"/>
    </clipPath>
    <g id="g773" opacity=".1" clip-path="url(#SVGID_84_)">
     <g id="g775" transform="translate(400.62 441.88)">
      <path id="path777" fill="#d0dddc" d="m-265.98-388.85c-0.685 0.684-0.392 7.718 2.931 5.08 9.573-7.62 29.601-5.862 43.57-1.172-2.246-4.396-18.562-7.424-27.745-7.327-4.396 0.195-16.901 1.465-18.756 3.419"/>
     </g>
    </g>
   </g>
  </g>
  <path id="path779" fill="#d0dddc" d="m34.62 5.8344c0 0.00469-0.02501 0.00782-0.0547 0.00782-0.0297 0-0.05472-0.00312-0.05472-0.00782 0-0.00469 0.02501-0.00781 0.05472-0.00781 0.03125-0.000016 0.0547 0.00469 0.0547 0.00781"/>
  <path id="path781" fill="#d0dddc" d="m32.513 5.6999c0 0.00469-0.02501 0.00469-0.0547 0-0.0297-0.00469-0.05315-0.012512-0.05158-0.0172 0.0016-0.00469 0.02501-0.00469 0.0547 0 0.0297 0.00314 0.05315 0.010944 0.05158 0.0172"/>
  <g id="g783" transform="matrix(.016 0 0 .016 40.796 8.1739)">
   <path id="path785" fill="#fff" d="m-328.5 1.918c-0.587-5.96-4.983-8.597-8.989-8.597-1.855 0-3.32 0.488-3.907 0.781l-0.78 0.39-0.686 0.488c-0.977 0.685-2.637 1.76-4.103 2.248-0.097-1.173 0-2.736 0.195-4.104v-0.194c1.075-10.453-1.074-16.607-6.545-18.171-0.88-0.294-1.856-0.391-2.833-0.391-3.322 0-6.253 1.562-8.108 2.931-1.564-2.051-4.298-3.126-7.62-3.126-4.982 0-8.988 2.345-10.453 6.057-0.196 0.392-0.391 0.977-0.587 1.759-2.931-6.448-8.89-8.89-14.458-8.89-5.275 0-10.355 2.051-12.211 3.516-0.099 0.099-0.197 0.099-0.294 0.196-4.982 3.517-8.89 8.011-11.626 13.384-1.367-4.592-4.298-8.988-9.476-12.212l-0.098-0.098c-0.196-0.098-0.294-0.194-0.391-0.194 5.178-9.087 9.672-21.2 6.936-32.728-2.931-12.311-10.16-14.068-14.165-14.068-1.66 0-3.42 0.293-5.178 0.88h-0.099-0.097c-7.62 3.027-10.942 7.521-11.724 8.597-0.781 1.173-9.085 13.872-11.137 32.435-0.195 2.051-0.489 4.2-0.684 6.35-1.173-1.661-3.126-3.225-6.155-4.104-0.977-0.293-1.954-0.391-2.931-0.391-4.201 0-7.62 2.54-9.476 4.299-1.563-2.346-4.103-3.811-6.936-3.908h-0.684c-4.494 0-8.011 1.954-10.648 4.201-1.661-2.931-4.787-4.788-8.402-4.788h-0.879-0.586c-4.982 0-8.89 2.346-10.453 6.253-0.098 0.293-0.293 0.685-0.391 1.173-3.908-4.885-8.89-7.132-15.631-7.132h-0.684c-4.201 0.098-14.556 1.855-21.004 16.217-0.977 2.247-1.759 4.494-2.345 6.644-1.368-0.685-2.735-0.782-3.615-0.782-3.321 0-5.861 1.857-7.034 3.713-0.977 1.465-4.103 6.545-2.54 11.626 0.879 2.735 2.735 4.786 5.471 5.861 2.442 0.977 5.471 1.855 7.718 2.54 1.368 3.224 3.908 6.838 8.401 10.257 3.126 2.442 7.229 3.615 11.919 3.615 8.011 0 15.729-3.419 16.51-3.811l0.293-0.194 0.097-0.099c1.563 1.563 3.517 2.735 6.057 3.224 0.782 0.196 1.758 0.294 2.931 0.294 4.298 0 7.327-2.247 10.16-6.35 2.247 3.613 6.448 5.567 11.333 5.567 0.293 0 0.489 0.195 0.879 0.195 2.54 0 5.861-0.878 8.5-5.274 2.247 4.005 6.35 6.35 11.234 6.35 4.299 0 8.108-1.759 8.792-2.149l0.195-0.098c1.465-0.781 2.638-1.466 3.615-1.954 3.224 1.759 8.108 3.615 14.166 3.615 1.074 0 2.052 0 3.126-0.196h0.293 0.293c12.7-2.539 21.004-5.567 25.985-7.912 3.42 3.907 8.989 7.619 16.805 8.206 0.879 0.098 1.758 0.098 2.637 0.098 6.447 0 11.626-1.856 15.437-3.811 1.172 1.271 2.734 2.442 4.688 3.225 1.173 0.488 2.442 0.684 3.615 0.684 7.913 0 11.625-9.379 12.603-12.603l1.855-5.08c1.662 1.759 3.811 3.224 6.546 4.005 1.466 0.392 3.126 0.685 4.688 0.685 8.695 0 17.097-6.154 18.367-7.229 2.251-2.25 4.791-6.352 4.303-11.921"/>
  </g>
  <g id="g787" transform="matrix(.016 0 0 .016 38.828 8.1095)">
   <path id="path789" fill="#e24c32" d="m-285.32 8.556s-1.074-3.907 3.028-11.333c4.104-7.424 7.229-3.419 7.229-3.419s3.518 3.811-0.489 9.477c-4.004 5.666-9.768 5.275-9.768 5.275m-31.359 5.374c-4.689 12.211-16.021 7.229-16.021 7.229s-1.27-4.396 2.442-16.608c3.713-12.211 12.31-7.424 12.31-7.424s5.959 4.591 1.269 16.803m-8.499-51.289s7.033-18.465 8.793-9.477c1.757 8.987-14.85 35.658-14.85 35.658 0.195-5.959 6.057-26.181 6.057-26.181m-101.11 45.915c0.293-11.821 8.01-16.999 10.746-14.459 2.735 2.541 1.758 8.207-3.419 11.626-4.982 3.517-7.327 2.833-7.327 2.833m214.24-1.953c-0.39-4.006-4.005-2.541-4.005-2.541s-5.765 4.494-10.844 4.006c-5.08-0.488-3.419-11.821-3.419-11.821s1.074-10.453-1.856-11.332c-3.028-0.88-6.644 2.735-6.644 2.735s-4.592 5.08-6.74 11.527l-0.587 0.195s0.685-11.332-0.098-13.97c-0.586-1.27-6.057-1.172-6.936 1.074-0.88 2.247-5.276 18.172-5.568 24.912 0 0-8.598 7.229-16.021 8.499-7.523 1.173-9.281-3.517-9.281-3.517s20.32-5.667 19.636-21.883c-0.683-16.217-16.412-10.258-18.17-8.89-1.76 1.27-10.844 6.838-13.58 22.078-0.098 0.488-0.293 2.833-0.293 2.833s-7.914 5.275-12.212 6.644c0 0 12.212-20.614-2.735-29.992-6.741-4.104-12.211 4.493-12.211 4.493s20.222-22.47 15.728-41.52c-2.148-9.085-6.643-10.062-10.843-8.597-6.351 2.54-8.695 6.154-8.695 6.154s-8.207 11.821-10.062 29.504-4.689 38.882-4.689 38.882-3.908 3.81-7.425 4.006c-3.615 0.195-1.954-10.649-1.954-10.649s2.735-16.51 2.54-19.343c-0.196-2.834-0.391-4.299-3.713-5.276-3.224-0.977-6.838 3.225-6.838 3.225s-9.476 14.36-10.258 16.51l-0.488 0.88-0.489-0.587s6.644-19.538 0.293-19.831-10.551 6.937-10.551 6.937-7.229 12.212-7.522 13.579l-0.488-0.586s3.028-14.166 2.442-17.684c-0.586-3.517-3.908-2.734-3.908-2.734s-4.201-0.489-5.276 2.246c-1.074 2.736-5.08 20.516-5.568 26.183 0 0-10.454 7.521-17.292 7.521-6.838 0.099-6.154-4.396-6.154-4.396s25.205-8.598 18.366-25.693c-3.126-4.396-6.643-5.764-11.723-5.666-5.08 0.097-11.04 3.224-15.143 12.309-1.954 4.396-2.735 8.5-2.735 11.626 0 0-4.689 0.88-7.132-1.074s-3.81 0-3.81 0-4.201 5.959-0.098 7.521c4.104 1.563 10.355 3.127 10.355 3.127 0.586 2.54 2.248 6.838 7.229 10.55 7.425 5.667 21.786-0.878 21.786-0.878l5.862-3.518s0.195 5.275 4.494 6.057c4.298 0.781 6.057-0.097 13.58-18.17 4.396-9.281 4.689-8.793 4.689-8.793l0.488-0.098s-3.419 17.683-2.052 22.469c1.368 4.788 6.937 4.299 6.937 4.299s3.126 1.074 5.569-7.718c2.54-8.792 7.229-17.975 7.229-17.975h0.586s-2.052 17.682 1.075 23.446c3.224 5.763 11.43 1.758 11.43 1.758s5.764-3.028 6.644-3.907c0 0 6.838 5.764 16.511 4.688 21.59-4.298 29.308-10.062 29.308-10.062s3.711 9.378 15.24 10.258c13.188 0.977 20.319-7.327 20.319-7.327s-0.098 5.373 4.495 7.229c4.59 1.855 7.717-8.109 7.717-8.109l7.717-20.613h0.686s0.39 13.189 8.01 15.339c7.621 2.149 17.487-5.472 17.487-5.472s2.146-1.072 1.658-5.077"/>
  </g>
 </g>
</svg>
